<mxfile host="app.diagrams.net" modified="2023-09-25T16:33:06.843Z" agent="Mozilla/5.0 (Windows NT 10.0; Win64; x64; rv:109.0) Gecko/20100101 Firefox/117.0" etag="m0187q9aCuevq8ZYyKxK" version="21.8.2" type="onedrive" pages="8">
  <diagram name="bpmn-revised-use-ids-app" id="2a216829-ef6e-dabb-86c1-c78162f3ba2b">
    <mxGraphModel grid="1" page="1" gridSize="10" guides="1" tooltips="1" connect="1" arrows="1" fold="1" pageScale="1" pageWidth="850" pageHeight="1100" background="none" math="0" shadow="0">
      <root>
        <mxCell id="0" />
        <mxCell id="1" parent="0" />
        <mxCell id="7a84cebc1def654-48" style="edgeStyle=orthogonalEdgeStyle;rounded=0;html=1;jettySize=auto;orthogonalLoop=1;" edge="1" parent="1">
          <mxGeometry relative="1" as="geometry">
            <mxPoint x="590" y="425.0000000000002" as="sourcePoint" />
          </mxGeometry>
        </mxCell>
        <mxCell id="2J6cuPr8s4-nLWJRloEd-1" value="&lt;b&gt;App User&lt;/b&gt;" style="swimlane;horizontal=0;whiteSpace=wrap;html=1;" vertex="1" parent="1">
          <mxGeometry y="20" width="1240" height="320" as="geometry" />
        </mxCell>
        <mxCell id="2J6cuPr8s4-nLWJRloEd-2" value="Start" style="shape=mxgraph.bpmn.shape;html=1;verticalLabelPosition=bottom;labelBackgroundColor=#ffffff;verticalAlign=top;perimeter=ellipsePerimeter;outline=standard;symbol=general;fillColor=#FFFFFF;" vertex="1" parent="2J6cuPr8s4-nLWJRloEd-1">
          <mxGeometry x="30" y="50" width="50" height="50" as="geometry" />
        </mxCell>
        <mxCell id="2J6cuPr8s4-nLWJRloEd-3" style="edgeStyle=orthogonalEdgeStyle;rounded=0;orthogonalLoop=1;jettySize=auto;html=1;exitX=1;exitY=0.5;exitDx=0;exitDy=0;entryX=0.5;entryY=1;entryDx=0;entryDy=0;" edge="1" parent="2J6cuPr8s4-nLWJRloEd-1" source="2J6cuPr8s4-nLWJRloEd-4" target="2J6cuPr8s4-nLWJRloEd-13">
          <mxGeometry relative="1" as="geometry" />
        </mxCell>
        <mxCell id="2J6cuPr8s4-nLWJRloEd-4" value="&lt;div style=&quot;font-size: 14px;&quot; align=&quot;center&quot;&gt;&lt;font style=&quot;font-size: 14px;&quot;&gt;Onboarding&lt;/font&gt;&lt;/div&gt;" style="html=1;whiteSpace=wrap;rounded=1;align=center;" vertex="1" parent="2J6cuPr8s4-nLWJRloEd-1">
          <mxGeometry x="107.5" y="170" width="95" height="55" as="geometry" />
        </mxCell>
        <mxCell id="2J6cuPr8s4-nLWJRloEd-5" value="" style="html=1;shape=plus;" vertex="1" parent="2J6cuPr8s4-nLWJRloEd-4">
          <mxGeometry x="0.5" y="1" width="14" height="14" relative="1" as="geometry">
            <mxPoint x="-7" y="-14" as="offset" />
          </mxGeometry>
        </mxCell>
        <mxCell id="2J6cuPr8s4-nLWJRloEd-6" style="edgeStyle=orthogonalEdgeStyle;rounded=0;html=1;jettySize=auto;orthogonalLoop=1;" edge="1" parent="2J6cuPr8s4-nLWJRloEd-1" source="2J6cuPr8s4-nLWJRloEd-2">
          <mxGeometry relative="1" as="geometry">
            <mxPoint x="130" y="75" as="targetPoint" />
          </mxGeometry>
        </mxCell>
        <mxCell id="2J6cuPr8s4-nLWJRloEd-7" style="edgeStyle=orthogonalEdgeStyle;rounded=0;orthogonalLoop=1;jettySize=auto;html=1;exitX=1;exitY=0.5;exitDx=0;exitDy=0;entryX=0;entryY=0.5;entryDx=0;entryDy=0;fontSize=12;" edge="1" parent="2J6cuPr8s4-nLWJRloEd-1" source="2J6cuPr8s4-nLWJRloEd-9" target="2J6cuPr8s4-nLWJRloEd-13">
          <mxGeometry relative="1" as="geometry" />
        </mxCell>
        <mxCell id="2J6cuPr8s4-nLWJRloEd-8" value="Yes" style="edgeLabel;html=1;align=center;verticalAlign=middle;resizable=0;points=[];" connectable="0" vertex="1" parent="2J6cuPr8s4-nLWJRloEd-7">
          <mxGeometry x="-0.2529" y="-2" relative="1" as="geometry">
            <mxPoint x="4" y="-2" as="offset" />
          </mxGeometry>
        </mxCell>
        <mxCell id="2J6cuPr8s4-nLWJRloEd-9" value="" style="rhombus;whiteSpace=wrap;html=1;strokeWidth=1;spacing=2;" vertex="1" parent="2J6cuPr8s4-nLWJRloEd-1">
          <mxGeometry x="130" y="50" width="50" height="50" as="geometry" />
        </mxCell>
        <mxCell id="2J6cuPr8s4-nLWJRloEd-10" value="" style="endArrow=classic;html=1;rounded=0;exitX=0.5;exitY=1;exitDx=0;exitDy=0;entryX=0.5;entryY=0;entryDx=0;entryDy=0;" edge="1" parent="2J6cuPr8s4-nLWJRloEd-1" source="2J6cuPr8s4-nLWJRloEd-9" target="2J6cuPr8s4-nLWJRloEd-4">
          <mxGeometry width="50" height="50" relative="1" as="geometry">
            <mxPoint x="270" y="195" as="sourcePoint" />
            <mxPoint x="320" y="145" as="targetPoint" />
          </mxGeometry>
        </mxCell>
        <mxCell id="2J6cuPr8s4-nLWJRloEd-11" value="&lt;font style=&quot;font-size: 12px;&quot;&gt;No&lt;/font&gt;" style="edgeLabel;html=1;align=center;verticalAlign=middle;resizable=0;points=[];spacing=2;" connectable="0" vertex="1" parent="2J6cuPr8s4-nLWJRloEd-10">
          <mxGeometry x="-0.361" y="-1" relative="1" as="geometry">
            <mxPoint as="offset" />
          </mxGeometry>
        </mxCell>
        <mxCell id="2J6cuPr8s4-nLWJRloEd-12" style="edgeStyle=orthogonalEdgeStyle;rounded=0;orthogonalLoop=1;jettySize=auto;html=1;exitX=1;exitY=0.5;exitDx=0;exitDy=0;entryX=0;entryY=0.5;entryDx=0;entryDy=0;" edge="1" parent="2J6cuPr8s4-nLWJRloEd-1" source="2J6cuPr8s4-nLWJRloEd-13" target="2J6cuPr8s4-nLWJRloEd-19">
          <mxGeometry relative="1" as="geometry" />
        </mxCell>
        <mxCell id="2J6cuPr8s4-nLWJRloEd-13" value="" style="rhombus;whiteSpace=wrap;html=1;strokeWidth=1;" vertex="1" parent="2J6cuPr8s4-nLWJRloEd-1">
          <mxGeometry x="250" y="50" width="50" height="50" as="geometry" />
        </mxCell>
        <mxCell id="2J6cuPr8s4-nLWJRloEd-14" value="&lt;font style=&quot;font-size: 14px;&quot;&gt;Target Connector&lt;br&gt;Set up?&lt;/font&gt;" style="text;html=1;strokeColor=none;fillColor=none;align=center;verticalAlign=middle;whiteSpace=wrap;rounded=0;" vertex="1" parent="2J6cuPr8s4-nLWJRloEd-1">
          <mxGeometry x="95" y="10" width="120" height="30" as="geometry" />
        </mxCell>
        <mxCell id="2J6cuPr8s4-nLWJRloEd-15" style="edgeStyle=orthogonalEdgeStyle;rounded=0;orthogonalLoop=1;jettySize=auto;html=1;exitX=0.5;exitY=1;exitDx=0;exitDy=0;entryX=0.5;entryY=0;entryDx=0;entryDy=0;" edge="1" parent="2J6cuPr8s4-nLWJRloEd-1" source="2J6cuPr8s4-nLWJRloEd-19" target="2J6cuPr8s4-nLWJRloEd-28">
          <mxGeometry relative="1" as="geometry" />
        </mxCell>
        <mxCell id="2J6cuPr8s4-nLWJRloEd-16" value="No" style="edgeLabel;html=1;align=center;verticalAlign=middle;resizable=0;points=[];" connectable="0" vertex="1" parent="2J6cuPr8s4-nLWJRloEd-15">
          <mxGeometry x="-0.2067" y="-1" relative="1" as="geometry">
            <mxPoint as="offset" />
          </mxGeometry>
        </mxCell>
        <mxCell id="2J6cuPr8s4-nLWJRloEd-17" style="edgeStyle=orthogonalEdgeStyle;rounded=0;orthogonalLoop=1;jettySize=auto;html=1;exitX=1;exitY=0.5;exitDx=0;exitDy=0;entryX=0;entryY=0.5;entryDx=0;entryDy=0;" edge="1" parent="2J6cuPr8s4-nLWJRloEd-1" source="2J6cuPr8s4-nLWJRloEd-19" target="2J6cuPr8s4-nLWJRloEd-47">
          <mxGeometry relative="1" as="geometry" />
        </mxCell>
        <mxCell id="2J6cuPr8s4-nLWJRloEd-18" value="Yes" style="edgeLabel;html=1;align=center;verticalAlign=middle;resizable=0;points=[];" connectable="0" vertex="1" parent="2J6cuPr8s4-nLWJRloEd-17">
          <mxGeometry x="-0.0291" y="1" relative="1" as="geometry">
            <mxPoint as="offset" />
          </mxGeometry>
        </mxCell>
        <mxCell id="2J6cuPr8s4-nLWJRloEd-19" value="" style="rhombus;whiteSpace=wrap;html=1;strokeWidth=1;" vertex="1" parent="2J6cuPr8s4-nLWJRloEd-1">
          <mxGeometry x="375" y="50" width="50" height="50" as="geometry" />
        </mxCell>
        <mxCell id="2J6cuPr8s4-nLWJRloEd-20" value="&lt;font style=&quot;font-size: 14px;&quot;&gt;App Known?&lt;/font&gt;" style="text;html=1;strokeColor=none;fillColor=none;align=center;verticalAlign=middle;whiteSpace=wrap;rounded=0;" vertex="1" parent="2J6cuPr8s4-nLWJRloEd-1">
          <mxGeometry x="340" y="20" width="120" height="30" as="geometry" />
        </mxCell>
        <mxCell id="2J6cuPr8s4-nLWJRloEd-21" style="edgeStyle=orthogonalEdgeStyle;rounded=0;orthogonalLoop=1;jettySize=auto;html=1;exitX=1;exitY=0.5;exitDx=0;exitDy=0;entryX=0.5;entryY=1;entryDx=0;entryDy=0;" edge="1" parent="2J6cuPr8s4-nLWJRloEd-1" source="2J6cuPr8s4-nLWJRloEd-22" target="2J6cuPr8s4-nLWJRloEd-34">
          <mxGeometry relative="1" as="geometry" />
        </mxCell>
        <mxCell id="2J6cuPr8s4-nLWJRloEd-22" value="Find IDS App&lt;br&gt;in the App Store" style="html=1;whiteSpace=wrap;rounded=1;align=center;" vertex="1" parent="2J6cuPr8s4-nLWJRloEd-1">
          <mxGeometry x="535" y="240" width="110" height="60" as="geometry" />
        </mxCell>
        <mxCell id="2J6cuPr8s4-nLWJRloEd-23" value="" style="html=1;shape=plus;" vertex="1" parent="2J6cuPr8s4-nLWJRloEd-22">
          <mxGeometry x="0.5" y="1" width="14" height="14" relative="1" as="geometry">
            <mxPoint x="-7" y="-14" as="offset" />
          </mxGeometry>
        </mxCell>
        <mxCell id="2J6cuPr8s4-nLWJRloEd-24" style="edgeStyle=orthogonalEdgeStyle;rounded=0;orthogonalLoop=1;jettySize=auto;html=1;exitX=1;exitY=0.5;exitDx=0;exitDy=0;entryX=0;entryY=0.5;entryDx=0;entryDy=0;" edge="1" parent="2J6cuPr8s4-nLWJRloEd-1" source="2J6cuPr8s4-nLWJRloEd-28" target="2J6cuPr8s4-nLWJRloEd-31">
          <mxGeometry relative="1" as="geometry" />
        </mxCell>
        <mxCell id="2J6cuPr8s4-nLWJRloEd-25" value="Using&lt;br&gt;Interoperability&lt;br&gt;Simulator" style="edgeLabel;html=1;align=center;verticalAlign=middle;resizable=0;points=[];" connectable="0" vertex="1" parent="2J6cuPr8s4-nLWJRloEd-24">
          <mxGeometry x="-0.1881" y="1" relative="1" as="geometry">
            <mxPoint as="offset" />
          </mxGeometry>
        </mxCell>
        <mxCell id="2J6cuPr8s4-nLWJRloEd-26" style="edgeStyle=orthogonalEdgeStyle;rounded=0;orthogonalLoop=1;jettySize=auto;html=1;exitX=0.5;exitY=1;exitDx=0;exitDy=0;entryX=0;entryY=0.5;entryDx=0;entryDy=0;" edge="1" parent="2J6cuPr8s4-nLWJRloEd-1" source="2J6cuPr8s4-nLWJRloEd-28" target="2J6cuPr8s4-nLWJRloEd-22">
          <mxGeometry relative="1" as="geometry" />
        </mxCell>
        <mxCell id="2J6cuPr8s4-nLWJRloEd-27" value="Manual Search" style="edgeLabel;html=1;align=center;verticalAlign=middle;resizable=0;points=[];" connectable="0" vertex="1" parent="2J6cuPr8s4-nLWJRloEd-26">
          <mxGeometry x="0.2248" y="-1" relative="1" as="geometry">
            <mxPoint y="-2" as="offset" />
          </mxGeometry>
        </mxCell>
        <mxCell id="2J6cuPr8s4-nLWJRloEd-28" value="" style="rhombus;whiteSpace=wrap;html=1;strokeWidth=1;" vertex="1" parent="2J6cuPr8s4-nLWJRloEd-1">
          <mxGeometry x="375" y="150" width="50" height="50" as="geometry" />
        </mxCell>
        <mxCell id="2J6cuPr8s4-nLWJRloEd-29" value="How to find&lt;br&gt;the IDS App?" style="text;html=1;strokeColor=none;fillColor=none;align=center;verticalAlign=middle;whiteSpace=wrap;rounded=0;" vertex="1" parent="2J6cuPr8s4-nLWJRloEd-1">
          <mxGeometry x="290" y="160" width="90" height="30" as="geometry" />
        </mxCell>
        <mxCell id="2J6cuPr8s4-nLWJRloEd-30" style="edgeStyle=orthogonalEdgeStyle;rounded=0;orthogonalLoop=1;jettySize=auto;html=1;exitX=1;exitY=0.5;exitDx=0;exitDy=0;entryX=0;entryY=0.5;entryDx=0;entryDy=0;" edge="1" parent="2J6cuPr8s4-nLWJRloEd-1" source="2J6cuPr8s4-nLWJRloEd-31" target="2J6cuPr8s4-nLWJRloEd-34">
          <mxGeometry relative="1" as="geometry" />
        </mxCell>
        <mxCell id="2J6cuPr8s4-nLWJRloEd-31" value="Interoperability Assessment" style="html=1;whiteSpace=wrap;rounded=1;align=center;" vertex="1" parent="2J6cuPr8s4-nLWJRloEd-1">
          <mxGeometry x="530" y="130" width="120" height="79.53" as="geometry" />
        </mxCell>
        <mxCell id="2J6cuPr8s4-nLWJRloEd-32" value="" style="html=1;shape=plus;" vertex="1" parent="2J6cuPr8s4-nLWJRloEd-31">
          <mxGeometry x="0.5" y="1" width="14" height="14" relative="1" as="geometry">
            <mxPoint x="-7" y="-14" as="offset" />
          </mxGeometry>
        </mxCell>
        <mxCell id="2J6cuPr8s4-nLWJRloEd-33" style="edgeStyle=orthogonalEdgeStyle;rounded=0;orthogonalLoop=1;jettySize=auto;html=1;exitX=1;exitY=0.5;exitDx=0;exitDy=0;entryX=0;entryY=0.5;entryDx=0;entryDy=0;" edge="1" parent="2J6cuPr8s4-nLWJRloEd-1" source="2J6cuPr8s4-nLWJRloEd-34" target="2J6cuPr8s4-nLWJRloEd-43">
          <mxGeometry relative="1" as="geometry" />
        </mxCell>
        <mxCell id="2J6cuPr8s4-nLWJRloEd-34" value="" style="rhombus;whiteSpace=wrap;html=1;strokeWidth=1;" vertex="1" parent="2J6cuPr8s4-nLWJRloEd-1">
          <mxGeometry x="810" y="150" width="50" height="50" as="geometry" />
        </mxCell>
        <mxCell id="2J6cuPr8s4-nLWJRloEd-35" value="Payment&lt;br&gt;Needed?" style="text;html=1;strokeColor=none;fillColor=none;align=center;verticalAlign=middle;whiteSpace=wrap;rounded=0;" vertex="1" parent="2J6cuPr8s4-nLWJRloEd-1">
          <mxGeometry x="855" y="120" width="120" height="30" as="geometry" />
        </mxCell>
        <mxCell id="2J6cuPr8s4-nLWJRloEd-36" style="edgeStyle=orthogonalEdgeStyle;rounded=0;orthogonalLoop=1;jettySize=auto;html=1;exitX=0.5;exitY=0;exitDx=0;exitDy=0;entryX=0.5;entryY=1;entryDx=0;entryDy=0;" edge="1" parent="2J6cuPr8s4-nLWJRloEd-1" source="2J6cuPr8s4-nLWJRloEd-37" target="2J6cuPr8s4-nLWJRloEd-45">
          <mxGeometry relative="1" as="geometry" />
        </mxCell>
        <mxCell id="2J6cuPr8s4-nLWJRloEd-37" value="IDS App&lt;br&gt;Payment" style="html=1;whiteSpace=wrap;rounded=1;align=center;" vertex="1" parent="2J6cuPr8s4-nLWJRloEd-1">
          <mxGeometry x="972.5" y="240" width="85" height="60" as="geometry" />
        </mxCell>
        <mxCell id="2J6cuPr8s4-nLWJRloEd-38" value="" style="html=1;shape=plus;" vertex="1" parent="2J6cuPr8s4-nLWJRloEd-37">
          <mxGeometry x="0.5" y="1" width="14" height="14" relative="1" as="geometry">
            <mxPoint x="-7" y="-14" as="offset" />
          </mxGeometry>
        </mxCell>
        <mxCell id="2J6cuPr8s4-nLWJRloEd-39" style="edgeStyle=orthogonalEdgeStyle;rounded=0;orthogonalLoop=1;jettySize=auto;html=1;exitX=0.5;exitY=1;exitDx=0;exitDy=0;entryX=0;entryY=0.5;entryDx=0;entryDy=0;" edge="1" parent="2J6cuPr8s4-nLWJRloEd-1" source="2J6cuPr8s4-nLWJRloEd-43" target="2J6cuPr8s4-nLWJRloEd-37">
          <mxGeometry relative="1" as="geometry" />
        </mxCell>
        <mxCell id="2J6cuPr8s4-nLWJRloEd-40" value="Yes" style="edgeLabel;html=1;align=center;verticalAlign=middle;resizable=0;points=[];" connectable="0" vertex="1" parent="2J6cuPr8s4-nLWJRloEd-39">
          <mxGeometry x="-0.6357" y="-1" relative="1" as="geometry">
            <mxPoint as="offset" />
          </mxGeometry>
        </mxCell>
        <mxCell id="2J6cuPr8s4-nLWJRloEd-41" style="edgeStyle=orthogonalEdgeStyle;rounded=0;orthogonalLoop=1;jettySize=auto;html=1;exitX=1;exitY=0.5;exitDx=0;exitDy=0;entryX=0;entryY=0.5;entryDx=0;entryDy=0;" edge="1" parent="2J6cuPr8s4-nLWJRloEd-1" source="2J6cuPr8s4-nLWJRloEd-43" target="2J6cuPr8s4-nLWJRloEd-45">
          <mxGeometry relative="1" as="geometry" />
        </mxCell>
        <mxCell id="2J6cuPr8s4-nLWJRloEd-42" value="No" style="edgeLabel;html=1;align=center;verticalAlign=middle;resizable=0;points=[];" connectable="0" vertex="1" parent="2J6cuPr8s4-nLWJRloEd-41">
          <mxGeometry x="-0.24" y="1" relative="1" as="geometry">
            <mxPoint y="1" as="offset" />
          </mxGeometry>
        </mxCell>
        <mxCell id="2J6cuPr8s4-nLWJRloEd-43" value="" style="rhombus;whiteSpace=wrap;html=1;strokeWidth=1;" vertex="1" parent="2J6cuPr8s4-nLWJRloEd-1">
          <mxGeometry x="890" y="150" width="50" height="50" as="geometry" />
        </mxCell>
        <mxCell id="2J6cuPr8s4-nLWJRloEd-44" style="edgeStyle=orthogonalEdgeStyle;rounded=0;orthogonalLoop=1;jettySize=auto;html=1;exitX=0.5;exitY=0;exitDx=0;exitDy=0;entryX=0.5;entryY=1;entryDx=0;entryDy=0;" edge="1" parent="2J6cuPr8s4-nLWJRloEd-1" source="2J6cuPr8s4-nLWJRloEd-45" target="2J6cuPr8s4-nLWJRloEd-47">
          <mxGeometry relative="1" as="geometry" />
        </mxCell>
        <mxCell id="2J6cuPr8s4-nLWJRloEd-45" value="" style="rhombus;whiteSpace=wrap;html=1;strokeWidth=1;" vertex="1" parent="2J6cuPr8s4-nLWJRloEd-1">
          <mxGeometry x="990" y="150" width="50" height="50" as="geometry" />
        </mxCell>
        <mxCell id="2J6cuPr8s4-nLWJRloEd-46" style="edgeStyle=orthogonalEdgeStyle;rounded=0;orthogonalLoop=1;jettySize=auto;html=1;exitX=1;exitY=0.5;exitDx=0;exitDy=0;" edge="1" parent="2J6cuPr8s4-nLWJRloEd-1" source="2J6cuPr8s4-nLWJRloEd-47" target="2J6cuPr8s4-nLWJRloEd-49">
          <mxGeometry relative="1" as="geometry" />
        </mxCell>
        <mxCell id="2J6cuPr8s4-nLWJRloEd-47" value="" style="rhombus;whiteSpace=wrap;html=1;strokeWidth=1;" vertex="1" parent="2J6cuPr8s4-nLWJRloEd-1">
          <mxGeometry x="990" y="50" width="50" height="50" as="geometry" />
        </mxCell>
        <mxCell id="2J6cuPr8s4-nLWJRloEd-48" style="edgeStyle=orthogonalEdgeStyle;rounded=0;orthogonalLoop=1;jettySize=auto;html=1;exitX=1;exitY=0.5;exitDx=0;exitDy=0;entryX=0;entryY=0.5;entryDx=0;entryDy=0;entryPerimeter=0;" edge="1" parent="2J6cuPr8s4-nLWJRloEd-1" source="2J6cuPr8s4-nLWJRloEd-49" target="2J6cuPr8s4-nLWJRloEd-51">
          <mxGeometry relative="1" as="geometry" />
        </mxCell>
        <mxCell id="2J6cuPr8s4-nLWJRloEd-49" value="Retrieve IDS&lt;br&gt;App" style="html=1;whiteSpace=wrap;rounded=1;align=center;" vertex="1" parent="2J6cuPr8s4-nLWJRloEd-1">
          <mxGeometry x="1070" y="45" width="85" height="60" as="geometry" />
        </mxCell>
        <mxCell id="2J6cuPr8s4-nLWJRloEd-50" value="" style="html=1;shape=plus;" vertex="1" parent="2J6cuPr8s4-nLWJRloEd-49">
          <mxGeometry x="0.5" y="1" width="14" height="14" relative="1" as="geometry">
            <mxPoint x="-7" y="-14" as="offset" />
          </mxGeometry>
        </mxCell>
        <mxCell id="2J6cuPr8s4-nLWJRloEd-51" value="IDS App&lt;br&gt;Retrieved" style="points=[[0.145,0.145,0],[0.5,0,0],[0.855,0.145,0],[1,0.5,0],[0.855,0.855,0],[0.5,1,0],[0.145,0.855,0],[0,0.5,0]];shape=mxgraph.bpmn.event;html=1;verticalLabelPosition=bottom;labelBackgroundColor=#ffffff;verticalAlign=top;align=center;perimeter=ellipsePerimeter;outlineConnect=0;aspect=fixed;outline=end;symbol=terminate2;" vertex="1" parent="2J6cuPr8s4-nLWJRloEd-1">
          <mxGeometry x="1180" y="50" width="50" height="50" as="geometry" />
        </mxCell>
        <mxCell id="kGlDFjZJX2MmqyMWroLc-1" value="Interoperability Solution Recommendation" style="html=1;whiteSpace=wrap;rounded=1;align=center;" vertex="1" parent="2J6cuPr8s4-nLWJRloEd-1">
          <mxGeometry x="670" y="130" width="110" height="80" as="geometry" />
        </mxCell>
        <mxCell id="kGlDFjZJX2MmqyMWroLc-2" value="" style="html=1;shape=plus;" vertex="1" parent="kGlDFjZJX2MmqyMWroLc-1">
          <mxGeometry x="0.5" y="1" width="14" height="14" relative="1" as="geometry">
            <mxPoint x="-7" y="-14" as="offset" />
          </mxGeometry>
        </mxCell>
        <mxCell id="2J6cuPr8s4-nLWJRloEd-52" value="&lt;font style=&quot;font-size: 14px;&quot;&gt;&lt;b&gt;Use IDS App&lt;br&gt;&lt;/b&gt;&lt;/font&gt;" style="rounded=0;whiteSpace=wrap;html=1;" vertex="1" parent="1">
          <mxGeometry width="1240" height="20" as="geometry" />
        </mxCell>
      </root>
    </mxGraphModel>
  </diagram>
  <diagram name="bpmn-interop-assessment" id="0fo5QFvACFVOavid8O_3">
    <mxGraphModel grid="1" page="1" gridSize="10" guides="1" tooltips="1" connect="1" arrows="1" fold="1" pageScale="1" pageWidth="850" pageHeight="1100" background="none" math="0" shadow="0">
      <root>
        <mxCell id="-xTERzMWTQBEeeYiS9Ka-0" />
        <mxCell id="-xTERzMWTQBEeeYiS9Ka-1" parent="-xTERzMWTQBEeeYiS9Ka-0" />
        <mxCell id="-xTERzMWTQBEeeYiS9Ka-2" style="edgeStyle=orthogonalEdgeStyle;rounded=0;html=1;jettySize=auto;orthogonalLoop=1;" edge="1" parent="-xTERzMWTQBEeeYiS9Ka-1">
          <mxGeometry relative="1" as="geometry">
            <mxPoint x="590" y="425.0000000000002" as="sourcePoint" />
          </mxGeometry>
        </mxCell>
        <mxCell id="h04svuag2B65dDFgQ1n4-1" value="&lt;div&gt;&lt;font style=&quot;font-size: 14px;&quot;&gt;&lt;b&gt;Interoperability Assessment&lt;/b&gt;&lt;/font&gt;&lt;/div&gt;" style="swimlane;childLayout=stackLayout;resizeParent=1;resizeParentMax=0;horizontal=1;startSize=20;horizontalStack=0;html=1;" vertex="1" parent="-xTERzMWTQBEeeYiS9Ka-1">
          <mxGeometry width="1210" height="470" as="geometry" />
        </mxCell>
        <mxCell id="gYYbYzdBbTn_J_EL-Rrp-36" style="edgeStyle=orthogonalEdgeStyle;rounded=0;orthogonalLoop=1;jettySize=auto;html=1;exitX=0.5;exitY=0;exitDx=0;exitDy=0;entryX=0.5;entryY=1;entryDx=0;entryDy=0;" edge="1" parent="h04svuag2B65dDFgQ1n4-1" source="gYYbYzdBbTn_J_EL-Rrp-34" target="gYYbYzdBbTn_J_EL-Rrp-37">
          <mxGeometry relative="1" as="geometry">
            <mxPoint x="680" y="430" as="targetPoint" />
            <mxPoint x="580" y="343.75" as="sourcePoint" />
          </mxGeometry>
        </mxCell>
        <mxCell id="h04svuag2B65dDFgQ1n4-4" value="&lt;div&gt;&lt;font face=&quot;Verdana&quot;&gt;Interoperability&lt;/font&gt;&lt;/div&gt;&lt;font face=&quot;Verdana&quot;&gt;Simulator&lt;/font&gt;" style="swimlane;startSize=40;horizontal=0;html=1;" vertex="1" parent="h04svuag2B65dDFgQ1n4-1">
          <mxGeometry y="20" width="1210" height="180" as="geometry" />
        </mxCell>
        <mxCell id="gYYbYzdBbTn_J_EL-Rrp-39" style="edgeStyle=orthogonalEdgeStyle;rounded=0;orthogonalLoop=1;jettySize=auto;html=1;exitX=1;exitY=0.5;exitDx=0;exitDy=0;entryX=0;entryY=0.5;entryDx=0;entryDy=0;" edge="1" parent="h04svuag2B65dDFgQ1n4-4" source="gYYbYzdBbTn_J_EL-Rrp-37" target="gYYbYzdBbTn_J_EL-Rrp-38">
          <mxGeometry relative="1" as="geometry" />
        </mxCell>
        <mxCell id="2NURUq2oRM8Ax9TdZc2e-8" style="edgeStyle=orthogonalEdgeStyle;rounded=0;orthogonalLoop=1;jettySize=auto;html=1;exitX=1;exitY=0.5;exitDx=0;exitDy=0;entryX=0;entryY=0.5;entryDx=0;entryDy=0;" edge="1" parent="h04svuag2B65dDFgQ1n4-4" source="gYYbYzdBbTn_J_EL-Rrp-37" target="2NURUq2oRM8Ax9TdZc2e-7">
          <mxGeometry relative="1" as="geometry" />
        </mxCell>
        <mxCell id="gYYbYzdBbTn_J_EL-Rrp-37" value="&lt;font style=&quot;font-size: 14px;&quot;&gt;Receive User Inputs&lt;br&gt;&lt;/font&gt;" style="rounded=1;whiteSpace=wrap;html=1;absoluteArcSize=1;arcSize=14;strokeWidth=2;" vertex="1" parent="h04svuag2B65dDFgQ1n4-4">
          <mxGeometry x="520" y="60" width="120" height="60" as="geometry" />
        </mxCell>
        <mxCell id="2NURUq2oRM8Ax9TdZc2e-6" style="edgeStyle=orthogonalEdgeStyle;rounded=0;orthogonalLoop=1;jettySize=auto;html=1;exitX=1;exitY=0.5;exitDx=0;exitDy=0;entryX=0;entryY=0.5;entryDx=0;entryDy=0;entryPerimeter=0;" edge="1" parent="h04svuag2B65dDFgQ1n4-4" source="gYYbYzdBbTn_J_EL-Rrp-38" target="2NURUq2oRM8Ax9TdZc2e-4">
          <mxGeometry relative="1" as="geometry" />
        </mxCell>
        <mxCell id="gYYbYzdBbTn_J_EL-Rrp-38" value="&lt;font style=&quot;font-size: 14px;&quot;&gt;Perform Schema Matching&lt;/font&gt;" style="rounded=1;whiteSpace=wrap;html=1;absoluteArcSize=1;arcSize=14;strokeWidth=2;" vertex="1" parent="h04svuag2B65dDFgQ1n4-4">
          <mxGeometry x="710" y="20" width="120" height="60" as="geometry" />
        </mxCell>
        <mxCell id="2NURUq2oRM8Ax9TdZc2e-11" style="edgeStyle=orthogonalEdgeStyle;rounded=0;orthogonalLoop=1;jettySize=auto;html=1;exitX=1;exitY=0.5;exitDx=0;exitDy=0;exitPerimeter=0;" edge="1" parent="h04svuag2B65dDFgQ1n4-4" source="2NURUq2oRM8Ax9TdZc2e-4" target="2NURUq2oRM8Ax9TdZc2e-10">
          <mxGeometry relative="1" as="geometry" />
        </mxCell>
        <mxCell id="2NURUq2oRM8Ax9TdZc2e-4" value="" style="points=[[0.25,0.25,0],[0.5,0,0],[0.75,0.25,0],[1,0.5,0],[0.75,0.75,0],[0.5,1,0],[0.25,0.75,0],[0,0.5,0]];shape=mxgraph.bpmn.gateway2;html=1;verticalLabelPosition=bottom;labelBackgroundColor=#ffffff;verticalAlign=top;align=center;perimeter=rhombusPerimeter;outlineConnect=0;outline=none;symbol=none;gwType=parallel;" vertex="1" parent="h04svuag2B65dDFgQ1n4-4">
          <mxGeometry x="870" y="25" width="50" height="50" as="geometry" />
        </mxCell>
        <mxCell id="2NURUq2oRM8Ax9TdZc2e-9" style="edgeStyle=orthogonalEdgeStyle;rounded=0;orthogonalLoop=1;jettySize=auto;html=1;exitX=1;exitY=0.5;exitDx=0;exitDy=0;" edge="1" parent="h04svuag2B65dDFgQ1n4-4" source="2NURUq2oRM8Ax9TdZc2e-7" target="2NURUq2oRM8Ax9TdZc2e-4">
          <mxGeometry relative="1" as="geometry" />
        </mxCell>
        <mxCell id="2NURUq2oRM8Ax9TdZc2e-7" value="&lt;div&gt;&lt;font style=&quot;font-size: 14px;&quot;&gt;Perform Cost Calculation&lt;/font&gt;&lt;/div&gt;" style="rounded=1;whiteSpace=wrap;html=1;absoluteArcSize=1;arcSize=14;strokeWidth=2;" vertex="1" parent="h04svuag2B65dDFgQ1n4-4">
          <mxGeometry x="710" y="100" width="120" height="60" as="geometry" />
        </mxCell>
        <mxCell id="2NURUq2oRM8Ax9TdZc2e-10" value="&lt;font style=&quot;font-size: 14px;&quot;&gt;Show Interoperability Assessment Results&lt;/font&gt;" style="rounded=1;whiteSpace=wrap;html=1;absoluteArcSize=1;arcSize=14;strokeWidth=2;" vertex="1" parent="h04svuag2B65dDFgQ1n4-4">
          <mxGeometry x="950" y="20" width="130" height="60" as="geometry" />
        </mxCell>
        <mxCell id="1P80s0i168njFzN7JoNV-1" value="&lt;font face=&quot;Verdana&quot;&gt;Data Participant&lt;br&gt;&lt;/font&gt;" style="swimlane;startSize=40;horizontal=0;html=1;" vertex="1" parent="h04svuag2B65dDFgQ1n4-1">
          <mxGeometry y="200" width="1210" height="270" as="geometry" />
        </mxCell>
        <mxCell id="1P80s0i168njFzN7JoNV-2" value="&lt;div&gt;IDS Connector&lt;/div&gt;" style="swimlane;horizontal=0;whiteSpace=wrap;html=1;" vertex="1" parent="1P80s0i168njFzN7JoNV-1">
          <mxGeometry x="40" width="1170" height="270" as="geometry">
            <mxRectangle x="-20" width="40" height="90" as="alternateBounds" />
          </mxGeometry>
        </mxCell>
        <mxCell id="gYYbYzdBbTn_J_EL-Rrp-24" style="edgeStyle=orthogonalEdgeStyle;rounded=0;orthogonalLoop=1;jettySize=auto;html=1;exitX=1;exitY=0.5;exitDx=0;exitDy=0;entryX=0;entryY=0.5;entryDx=0;entryDy=0;entryPerimeter=0;" edge="1" parent="1P80s0i168njFzN7JoNV-2" source="1P80s0i168njFzN7JoNV-9" target="gYYbYzdBbTn_J_EL-Rrp-23">
          <mxGeometry relative="1" as="geometry" />
        </mxCell>
        <mxCell id="1P80s0i168njFzN7JoNV-9" value="&lt;font style=&quot;font-size: 14px;&quot;&gt;Start&lt;/font&gt;" style="shape=mxgraph.bpmn.shape;html=1;verticalLabelPosition=bottom;labelBackgroundColor=#ffffff;verticalAlign=top;perimeter=ellipsePerimeter;outline=standard;symbol=general;fillColor=#FFFFFF;" vertex="1" parent="1P80s0i168njFzN7JoNV-2">
          <mxGeometry x="30" y="108.75" width="50" height="50" as="geometry" />
        </mxCell>
        <mxCell id="gYYbYzdBbTn_J_EL-Rrp-30" style="edgeStyle=orthogonalEdgeStyle;rounded=0;orthogonalLoop=1;jettySize=auto;html=1;exitX=1;exitY=0.5;exitDx=0;exitDy=0;entryX=0.5;entryY=0;entryDx=0;entryDy=0;entryPerimeter=0;" edge="1" parent="1P80s0i168njFzN7JoNV-2" source="1P80s0i168njFzN7JoNV-32" target="gYYbYzdBbTn_J_EL-Rrp-29">
          <mxGeometry relative="1" as="geometry">
            <mxPoint x="415" y="107.5" as="targetPoint" />
          </mxGeometry>
        </mxCell>
        <mxCell id="1P80s0i168njFzN7JoNV-32" value="&lt;div style=&quot;font-size: 14px;&quot; align=&quot;center&quot;&gt;&lt;font style=&quot;font-size: 14px;&quot;&gt;Provide Data Provider&#39;s schema&lt;br&gt;&lt;/font&gt;&lt;/div&gt;" style="rounded=1;whiteSpace=wrap;html=1;absoluteArcSize=1;arcSize=14;strokeWidth=2;" vertex="1" parent="1P80s0i168njFzN7JoNV-2">
          <mxGeometry x="200" y="25" width="160" height="45" as="geometry" />
        </mxCell>
        <mxCell id="gYYbYzdBbTn_J_EL-Rrp-31" style="edgeStyle=orthogonalEdgeStyle;rounded=0;orthogonalLoop=1;jettySize=auto;html=1;exitX=1;exitY=0.5;exitDx=0;exitDy=0;entryX=0;entryY=0.5;entryDx=0;entryDy=0;entryPerimeter=0;" edge="1" parent="1P80s0i168njFzN7JoNV-2" source="gYYbYzdBbTn_J_EL-Rrp-20" target="gYYbYzdBbTn_J_EL-Rrp-29">
          <mxGeometry relative="1" as="geometry">
            <mxPoint x="380" y="133.75" as="targetPoint" />
          </mxGeometry>
        </mxCell>
        <mxCell id="gYYbYzdBbTn_J_EL-Rrp-20" value="&lt;div style=&quot;font-size: 14px;&quot; align=&quot;center&quot;&gt;&lt;font style=&quot;font-size: 14px;&quot;&gt;Provide Data Consumer&#39;s schema&lt;br&gt;&lt;/font&gt;&lt;/div&gt;" style="rounded=1;whiteSpace=wrap;html=1;absoluteArcSize=1;arcSize=14;strokeWidth=2;" vertex="1" parent="1P80s0i168njFzN7JoNV-2">
          <mxGeometry x="200" y="80" width="160" height="46.25" as="geometry" />
        </mxCell>
        <mxCell id="gYYbYzdBbTn_J_EL-Rrp-25" style="edgeStyle=orthogonalEdgeStyle;rounded=0;orthogonalLoop=1;jettySize=auto;html=1;exitX=0.5;exitY=0;exitDx=0;exitDy=0;exitPerimeter=0;entryX=0;entryY=0.5;entryDx=0;entryDy=0;" edge="1" parent="1P80s0i168njFzN7JoNV-2" source="gYYbYzdBbTn_J_EL-Rrp-23" target="1P80s0i168njFzN7JoNV-32">
          <mxGeometry relative="1" as="geometry" />
        </mxCell>
        <mxCell id="gYYbYzdBbTn_J_EL-Rrp-26" style="edgeStyle=orthogonalEdgeStyle;rounded=0;orthogonalLoop=1;jettySize=auto;html=1;exitX=1;exitY=0.5;exitDx=0;exitDy=0;exitPerimeter=0;entryX=0;entryY=0.5;entryDx=0;entryDy=0;" edge="1" parent="1P80s0i168njFzN7JoNV-2" source="gYYbYzdBbTn_J_EL-Rrp-23" target="gYYbYzdBbTn_J_EL-Rrp-20">
          <mxGeometry relative="1" as="geometry" />
        </mxCell>
        <mxCell id="gYYbYzdBbTn_J_EL-Rrp-28" style="edgeStyle=orthogonalEdgeStyle;rounded=0;orthogonalLoop=1;jettySize=auto;html=1;exitX=0.5;exitY=1;exitDx=0;exitDy=0;exitPerimeter=0;entryX=0;entryY=0.5;entryDx=0;entryDy=0;" edge="1" parent="1P80s0i168njFzN7JoNV-2" source="gYYbYzdBbTn_J_EL-Rrp-23" target="gYYbYzdBbTn_J_EL-Rrp-27">
          <mxGeometry relative="1" as="geometry" />
        </mxCell>
        <mxCell id="2NURUq2oRM8Ax9TdZc2e-1" style="edgeStyle=orthogonalEdgeStyle;rounded=0;orthogonalLoop=1;jettySize=auto;html=1;exitX=0.5;exitY=1;exitDx=0;exitDy=0;exitPerimeter=0;entryX=0;entryY=0.5;entryDx=0;entryDy=0;" edge="1" parent="1P80s0i168njFzN7JoNV-2" source="gYYbYzdBbTn_J_EL-Rrp-23" target="2NURUq2oRM8Ax9TdZc2e-0">
          <mxGeometry relative="1" as="geometry" />
        </mxCell>
        <mxCell id="gYYbYzdBbTn_J_EL-Rrp-23" value="" style="points=[[0.25,0.25,0],[0.5,0,0],[0.75,0.25,0],[1,0.5,0],[0.75,0.75,0],[0.5,1,0],[0.25,0.75,0],[0,0.5,0]];shape=mxgraph.bpmn.gateway2;html=1;verticalLabelPosition=bottom;labelBackgroundColor=#ffffff;verticalAlign=top;align=center;perimeter=rhombusPerimeter;outlineConnect=0;outline=none;symbol=none;gwType=parallel;" vertex="1" parent="1P80s0i168njFzN7JoNV-2">
          <mxGeometry x="110" y="108.75" width="50" height="50" as="geometry" />
        </mxCell>
        <mxCell id="gYYbYzdBbTn_J_EL-Rrp-33" style="edgeStyle=orthogonalEdgeStyle;rounded=0;orthogonalLoop=1;jettySize=auto;html=1;exitX=1;exitY=0.5;exitDx=0;exitDy=0;entryX=0.5;entryY=1;entryDx=0;entryDy=0;entryPerimeter=0;" edge="1" parent="1P80s0i168njFzN7JoNV-2" source="gYYbYzdBbTn_J_EL-Rrp-27" target="gYYbYzdBbTn_J_EL-Rrp-29">
          <mxGeometry relative="1" as="geometry">
            <mxPoint x="415" y="157.5" as="targetPoint" />
          </mxGeometry>
        </mxCell>
        <mxCell id="gYYbYzdBbTn_J_EL-Rrp-27" value="&lt;div&gt;&lt;font style=&quot;font-size: 14px;&quot;&gt;Choose Matcher&lt;/font&gt;&lt;/div&gt;" style="rounded=1;whiteSpace=wrap;html=1;absoluteArcSize=1;arcSize=14;strokeWidth=2;" vertex="1" parent="1P80s0i168njFzN7JoNV-2">
          <mxGeometry x="200" y="140" width="160" height="47.5" as="geometry" />
        </mxCell>
        <mxCell id="gYYbYzdBbTn_J_EL-Rrp-35" style="edgeStyle=orthogonalEdgeStyle;rounded=0;orthogonalLoop=1;jettySize=auto;html=1;exitX=1;exitY=0.5;exitDx=0;exitDy=0;exitPerimeter=0;entryX=0;entryY=0.5;entryDx=0;entryDy=0;" edge="1" parent="1P80s0i168njFzN7JoNV-2" source="gYYbYzdBbTn_J_EL-Rrp-29" target="gYYbYzdBbTn_J_EL-Rrp-34">
          <mxGeometry relative="1" as="geometry" />
        </mxCell>
        <mxCell id="gYYbYzdBbTn_J_EL-Rrp-29" value="" style="points=[[0.25,0.25,0],[0.5,0,0],[0.75,0.25,0],[1,0.5,0],[0.75,0.75,0],[0.5,1,0],[0.25,0.75,0],[0,0.5,0]];shape=mxgraph.bpmn.gateway2;html=1;verticalLabelPosition=bottom;labelBackgroundColor=#ffffff;verticalAlign=top;align=center;perimeter=rhombusPerimeter;outlineConnect=0;outline=none;symbol=none;gwType=parallel;" vertex="1" parent="1P80s0i168njFzN7JoNV-2">
          <mxGeometry x="380" y="108.75" width="50" height="50" as="geometry" />
        </mxCell>
        <mxCell id="gYYbYzdBbTn_J_EL-Rrp-34" value="&lt;font style=&quot;font-size: 14px;&quot;&gt;Send User Inputs to Interoperability Simulator&lt;/font&gt;" style="rounded=1;whiteSpace=wrap;html=1;absoluteArcSize=1;arcSize=14;strokeWidth=2;" vertex="1" parent="1P80s0i168njFzN7JoNV-2">
          <mxGeometry x="460" y="103.75" width="160" height="60" as="geometry" />
        </mxCell>
        <mxCell id="2NURUq2oRM8Ax9TdZc2e-2" style="edgeStyle=orthogonalEdgeStyle;rounded=0;orthogonalLoop=1;jettySize=auto;html=1;exitX=1;exitY=0.5;exitDx=0;exitDy=0;entryX=0.5;entryY=1;entryDx=0;entryDy=0;entryPerimeter=0;" edge="1" parent="1P80s0i168njFzN7JoNV-2" source="2NURUq2oRM8Ax9TdZc2e-0" target="gYYbYzdBbTn_J_EL-Rrp-29">
          <mxGeometry relative="1" as="geometry" />
        </mxCell>
        <mxCell id="2NURUq2oRM8Ax9TdZc2e-0" value="&lt;div&gt;&lt;font style=&quot;font-size: 14px;&quot;&gt;Provide Pricing Information (If Available)&lt;/font&gt;&lt;/div&gt;" style="rounded=1;whiteSpace=wrap;html=1;absoluteArcSize=1;arcSize=14;strokeWidth=2;" vertex="1" parent="1P80s0i168njFzN7JoNV-2">
          <mxGeometry x="200" y="200" width="160" height="50" as="geometry" />
        </mxCell>
        <mxCell id="4Ki8o8bspuHpUuJ5TKuw-0" value="&lt;font style=&quot;font-size: 14px;&quot;&gt;Receive Interoperability Assessment Results&lt;/font&gt;" style="rounded=1;whiteSpace=wrap;html=1;absoluteArcSize=1;arcSize=14;strokeWidth=2;" vertex="1" parent="1P80s0i168njFzN7JoNV-2">
          <mxGeometry x="895" y="108.75" width="160" height="60" as="geometry" />
        </mxCell>
        <mxCell id="gYYbYzdBbTn_J_EL-Rrp-52" value="&lt;div&gt;&lt;font style=&quot;font-size: 14px;&quot;&gt;Interoperability&lt;br&gt;Assessment &lt;br&gt;Finished&lt;/font&gt;&lt;/div&gt;" style="points=[[0.145,0.145,0],[0.5,0,0],[0.855,0.145,0],[1,0.5,0],[0.855,0.855,0],[0.5,1,0],[0.145,0.855,0],[0,0.5,0]];shape=mxgraph.bpmn.event;html=1;verticalLabelPosition=bottom;labelBackgroundColor=#ffffff;verticalAlign=top;align=center;perimeter=ellipsePerimeter;outlineConnect=0;aspect=fixed;outline=end;symbol=terminate2;" vertex="1" parent="1P80s0i168njFzN7JoNV-2">
          <mxGeometry x="1090" y="113.75" width="50" height="50" as="geometry" />
        </mxCell>
        <mxCell id="2NURUq2oRM8Ax9TdZc2e-12" style="edgeStyle=orthogonalEdgeStyle;rounded=0;orthogonalLoop=1;jettySize=auto;html=1;exitX=1;exitY=0.5;exitDx=0;exitDy=0;entryX=0;entryY=0.5;entryDx=0;entryDy=0;entryPerimeter=0;" edge="1" parent="1P80s0i168njFzN7JoNV-2" source="4Ki8o8bspuHpUuJ5TKuw-0" target="gYYbYzdBbTn_J_EL-Rrp-52">
          <mxGeometry relative="1" as="geometry" />
        </mxCell>
        <mxCell id="CfRD0FS_NCnZtrWCxWI--0" style="edgeStyle=orthogonalEdgeStyle;rounded=0;orthogonalLoop=1;jettySize=auto;html=1;exitX=0.5;exitY=1;exitDx=0;exitDy=0;entryX=0.5;entryY=0;entryDx=0;entryDy=0;" edge="1" parent="h04svuag2B65dDFgQ1n4-1" source="2NURUq2oRM8Ax9TdZc2e-10" target="4Ki8o8bspuHpUuJ5TKuw-0">
          <mxGeometry relative="1" as="geometry" />
        </mxCell>
      </root>
    </mxGraphModel>
  </diagram>
  <diagram name="bpmn-interop-solution-recommendation" id="K0N9htYfa_MyOWq9Bla1">
    <mxGraphModel grid="1" page="1" gridSize="10" guides="1" tooltips="1" connect="1" arrows="1" fold="1" pageScale="1" pageWidth="850" pageHeight="1100" background="none" math="0" shadow="0">
      <root>
        <mxCell id="Z5cWWYtINSHIhN3r6lc1-0" />
        <mxCell id="Z5cWWYtINSHIhN3r6lc1-1" parent="Z5cWWYtINSHIhN3r6lc1-0" />
        <mxCell id="Z5cWWYtINSHIhN3r6lc1-2" style="edgeStyle=orthogonalEdgeStyle;rounded=0;html=1;jettySize=auto;orthogonalLoop=1;" edge="1" parent="Z5cWWYtINSHIhN3r6lc1-1">
          <mxGeometry relative="1" as="geometry">
            <mxPoint x="590" y="425.0000000000002" as="sourcePoint" />
          </mxGeometry>
        </mxCell>
        <mxCell id="Z5cWWYtINSHIhN3r6lc1-3" value="&lt;div&gt;&lt;font style=&quot;font-size: 14px;&quot;&gt;&lt;b&gt;Interoperability Solution Recommendation&lt;/b&gt;&lt;/font&gt;&lt;/div&gt;" style="swimlane;childLayout=stackLayout;resizeParent=1;resizeParentMax=0;horizontal=1;startSize=20;horizontalStack=0;html=1;" vertex="1" parent="Z5cWWYtINSHIhN3r6lc1-1">
          <mxGeometry width="930" height="410" as="geometry" />
        </mxCell>
        <mxCell id="Z5cWWYtINSHIhN3r6lc1-36" style="edgeStyle=orthogonalEdgeStyle;rounded=0;orthogonalLoop=1;jettySize=auto;html=1;exitX=0.5;exitY=0;exitDx=0;exitDy=0;entryX=0.5;entryY=1;entryDx=0;entryDy=0;" edge="1" parent="Z5cWWYtINSHIhN3r6lc1-3" source="Z5cWWYtINSHIhN3r6lc1-13" target="Z5cWWYtINSHIhN3r6lc1-6">
          <mxGeometry relative="1" as="geometry" />
        </mxCell>
        <mxCell id="Z5cWWYtINSHIhN3r6lc1-37" style="edgeStyle=orthogonalEdgeStyle;rounded=0;orthogonalLoop=1;jettySize=auto;html=1;exitX=0.5;exitY=1;exitDx=0;exitDy=0;entryX=0.5;entryY=0;entryDx=0;entryDy=0;" edge="1" parent="Z5cWWYtINSHIhN3r6lc1-3" source="Z5cWWYtINSHIhN3r6lc1-7" target="Z5cWWYtINSHIhN3r6lc1-14">
          <mxGeometry relative="1" as="geometry" />
        </mxCell>
        <mxCell id="Z5cWWYtINSHIhN3r6lc1-4" value="&lt;div&gt;&lt;font face=&quot;Verdana&quot;&gt;App Store&lt;/font&gt;&lt;/div&gt;" style="swimlane;startSize=40;horizontal=0;html=1;" vertex="1" parent="Z5cWWYtINSHIhN3r6lc1-3">
          <mxGeometry y="20" width="930" height="120" as="geometry" />
        </mxCell>
        <mxCell id="Z5cWWYtINSHIhN3r6lc1-5" style="edgeStyle=orthogonalEdgeStyle;rounded=0;orthogonalLoop=1;jettySize=auto;html=1;exitX=1;exitY=0.5;exitDx=0;exitDy=0;entryX=0;entryY=0.5;entryDx=0;entryDy=0;" edge="1" parent="Z5cWWYtINSHIhN3r6lc1-4" source="Z5cWWYtINSHIhN3r6lc1-6" target="Z5cWWYtINSHIhN3r6lc1-7">
          <mxGeometry relative="1" as="geometry" />
        </mxCell>
        <mxCell id="Z5cWWYtINSHIhN3r6lc1-6" value="&lt;font style=&quot;font-size: 14px;&quot;&gt;Receive and Process Query&lt;/font&gt;" style="rounded=1;whiteSpace=wrap;html=1;absoluteArcSize=1;arcSize=14;strokeWidth=2;" vertex="1" parent="Z5cWWYtINSHIhN3r6lc1-4">
          <mxGeometry x="320" y="30.630000000000003" width="120" height="60" as="geometry" />
        </mxCell>
        <mxCell id="Z5cWWYtINSHIhN3r6lc1-7" value="&lt;font style=&quot;font-size: 14px;&quot;&gt;Return&lt;br&gt;Query Results&lt;/font&gt;" style="rounded=1;whiteSpace=wrap;html=1;absoluteArcSize=1;arcSize=14;strokeWidth=2;" vertex="1" parent="Z5cWWYtINSHIhN3r6lc1-4">
          <mxGeometry x="480" y="30.630000000000003" width="120" height="60" as="geometry" />
        </mxCell>
        <mxCell id="Z5cWWYtINSHIhN3r6lc1-8" value="&lt;div&gt;&lt;font face=&quot;Verdana&quot;&gt;Interoperability&lt;/font&gt;&lt;/div&gt;&lt;font face=&quot;Verdana&quot;&gt;Simulator&lt;/font&gt;" style="swimlane;startSize=40;horizontal=0;html=1;" vertex="1" parent="Z5cWWYtINSHIhN3r6lc1-3">
          <mxGeometry y="140" width="930" height="140" as="geometry" />
        </mxCell>
        <mxCell id="Z5cWWYtINSHIhN3r6lc1-9" style="edgeStyle=orthogonalEdgeStyle;rounded=0;orthogonalLoop=1;jettySize=auto;html=1;exitX=1;exitY=0.5;exitDx=0;exitDy=0;entryX=0;entryY=0.5;entryDx=0;entryDy=0;" edge="1" parent="Z5cWWYtINSHIhN3r6lc1-8" source="Z5cWWYtINSHIhN3r6lc1-10" target="Z5cWWYtINSHIhN3r6lc1-13">
          <mxGeometry relative="1" as="geometry">
            <mxPoint x="325" y="70.63000000000011" as="targetPoint" />
          </mxGeometry>
        </mxCell>
        <mxCell id="Z5cWWYtINSHIhN3r6lc1-10" value="&lt;div&gt;&lt;font style=&quot;font-size: 14px;&quot;&gt;Convert Interoperability Assessment Results to Search Query&lt;br&gt;&lt;/font&gt;&lt;/div&gt;" style="rounded=1;whiteSpace=wrap;html=1;absoluteArcSize=1;arcSize=14;strokeWidth=2;" vertex="1" parent="Z5cWWYtINSHIhN3r6lc1-8">
          <mxGeometry x="150" y="15.63" width="120" height="100" as="geometry" />
        </mxCell>
        <mxCell id="Z5cWWYtINSHIhN3r6lc1-13" value="&lt;font style=&quot;font-size: 14px;&quot;&gt;Send Query to&lt;br&gt;App Store&lt;/font&gt;" style="rounded=1;whiteSpace=wrap;html=1;absoluteArcSize=1;arcSize=14;strokeWidth=2;" vertex="1" parent="Z5cWWYtINSHIhN3r6lc1-8">
          <mxGeometry x="320" y="35.63" width="120" height="60" as="geometry" />
        </mxCell>
        <mxCell id="Z5cWWYtINSHIhN3r6lc1-14" value="&lt;font style=&quot;font-size: 14px;&quot;&gt;Forward&lt;br&gt;&lt;/font&gt;&lt;div&gt;&lt;font style=&quot;font-size: 14px;&quot;&gt;Query Results&lt;/font&gt;&lt;/div&gt;&lt;div&gt;&lt;font style=&quot;font-size: 14px;&quot;&gt;and Cost Estimation&lt;br&gt;&lt;/font&gt;&lt;/div&gt;" style="rounded=1;whiteSpace=wrap;html=1;absoluteArcSize=1;arcSize=14;strokeWidth=2;" vertex="1" parent="Z5cWWYtINSHIhN3r6lc1-8">
          <mxGeometry x="470" y="40.63" width="140" height="60" as="geometry" />
        </mxCell>
        <mxCell id="u0ZE-l66XFo7vjrVaPDF-0" style="edgeStyle=orthogonalEdgeStyle;rounded=0;orthogonalLoop=1;jettySize=auto;html=1;exitX=1;exitY=0.5;exitDx=0;exitDy=0;" edge="1" parent="Z5cWWYtINSHIhN3r6lc1-8" source="H8QUGFlDEZRmly-MC3FW-0" target="Z5cWWYtINSHIhN3r6lc1-10">
          <mxGeometry relative="1" as="geometry" />
        </mxCell>
        <mxCell id="H8QUGFlDEZRmly-MC3FW-0" value="&lt;font style=&quot;font-size: 14px;&quot;&gt;Start&lt;/font&gt;" style="shape=mxgraph.bpmn.shape;html=1;verticalLabelPosition=bottom;labelBackgroundColor=#ffffff;verticalAlign=top;perimeter=ellipsePerimeter;outline=standard;symbol=general;fillColor=#FFFFFF;" vertex="1" parent="Z5cWWYtINSHIhN3r6lc1-8">
          <mxGeometry x="50" y="40.629999999999995" width="50" height="50" as="geometry" />
        </mxCell>
        <mxCell id="hjUa2LwMODOa_fhgn52R-0" value="&lt;div&gt;&lt;font face=&quot;Verdana&quot;&gt;Interoperability&lt;/font&gt;&lt;/div&gt;&lt;font face=&quot;Verdana&quot;&gt;Simulator&lt;/font&gt;" style="swimlane;startSize=40;horizontal=0;html=1;" vertex="1" parent="Z5cWWYtINSHIhN3r6lc1-3">
          <mxGeometry y="280" width="930" height="130" as="geometry" />
        </mxCell>
        <mxCell id="e9aSvh_5xoh6uvZt4rHy-0" value="&lt;font style=&quot;font-size: 14px;&quot;&gt;Receive IDS App Recommendation&lt;br&gt;&lt;/font&gt;" style="rounded=1;whiteSpace=wrap;html=1;absoluteArcSize=1;arcSize=14;strokeWidth=2;" vertex="1" parent="hjUa2LwMODOa_fhgn52R-0">
          <mxGeometry x="467.5" y="20" width="145" height="56.25" as="geometry" />
        </mxCell>
        <mxCell id="e9aSvh_5xoh6uvZt4rHy-1" value="IDS&lt;br&gt;App Recommendation &lt;br&gt;Received" style="points=[[0.145,0.145,0],[0.5,0,0],[0.855,0.145,0],[1,0.5,0],[0.855,0.855,0],[0.5,1,0],[0.145,0.855,0],[0,0.5,0]];shape=mxgraph.bpmn.event;html=1;verticalLabelPosition=bottom;labelBackgroundColor=#ffffff;verticalAlign=top;align=center;perimeter=ellipsePerimeter;outlineConnect=0;aspect=fixed;outline=end;symbol=terminate2;" vertex="1" parent="hjUa2LwMODOa_fhgn52R-0">
          <mxGeometry x="660" y="23.119999999999994" width="50" height="50" as="geometry" />
        </mxCell>
        <mxCell id="e9aSvh_5xoh6uvZt4rHy-2" style="edgeStyle=orthogonalEdgeStyle;rounded=0;orthogonalLoop=1;jettySize=auto;html=1;exitX=1;exitY=0.5;exitDx=0;exitDy=0;entryX=0;entryY=0.5;entryDx=0;entryDy=0;entryPerimeter=0;" edge="1" parent="hjUa2LwMODOa_fhgn52R-0" source="e9aSvh_5xoh6uvZt4rHy-0" target="e9aSvh_5xoh6uvZt4rHy-1">
          <mxGeometry relative="1" as="geometry" />
        </mxCell>
        <mxCell id="e9aSvh_5xoh6uvZt4rHy-4" style="edgeStyle=orthogonalEdgeStyle;rounded=0;orthogonalLoop=1;jettySize=auto;html=1;exitX=0.5;exitY=1;exitDx=0;exitDy=0;entryX=0.5;entryY=0;entryDx=0;entryDy=0;" edge="1" parent="Z5cWWYtINSHIhN3r6lc1-3" source="Z5cWWYtINSHIhN3r6lc1-14" target="e9aSvh_5xoh6uvZt4rHy-0">
          <mxGeometry relative="1" as="geometry">
            <mxPoint x="542.5" y="260" as="sourcePoint" />
          </mxGeometry>
        </mxCell>
      </root>
    </mxGraphModel>
  </diagram>
  <diagram id="6JZqPA7LDUYP4XD0zoMZ" name="venn-research-scope">
    <mxGraphModel grid="1" page="1" gridSize="10" guides="1" tooltips="1" connect="1" arrows="1" fold="1" pageScale="1" pageWidth="850" pageHeight="1100" math="0" shadow="0">
      <root>
        <mxCell id="0" />
        <mxCell id="1" parent="0" />
        <mxCell id="kTy7GrgsdUTNaHxn3rbE-8" value="" style="ellipse;fillColor=#CCCC00;opacity=60;strokeColor=none;html=1;fontColor=#FFFFFF;" vertex="1" parent="1">
          <mxGeometry x="-850" width="860" height="860" as="geometry" />
        </mxCell>
        <mxCell id="z2DISsv2LG4X6NB8Ws7r-2" value="" style="ellipse;fillColor=#0D7880;opacity=60;strokeColor=none;html=1;fontColor=#FFFFFF;" vertex="1" parent="1">
          <mxGeometry x="-420" width="860" height="860" as="geometry" />
        </mxCell>
        <mxCell id="z2DISsv2LG4X6NB8Ws7r-1" value="" style="ellipse;fillColor=#12A3AD;opacity=60;strokeColor=none;html=1;fontColor=#FFFFFF;" vertex="1" parent="1">
          <mxGeometry x="-336.25" y="83.75" width="692.5" height="692.5" as="geometry" />
        </mxCell>
        <mxCell id="z2DISsv2LG4X6NB8Ws7r-11" value="&lt;font style=&quot;font-size: 34px;&quot; color=&quot;#000000&quot;&gt;Data-sharing&lt;br&gt;Environment&lt;br&gt;&lt;/font&gt;" style="text;fontSize=24;align=center;verticalAlign=middle;html=1;fontColor=#FFFFFF;" vertex="1" parent="1">
          <mxGeometry x="-85" y="10" width="190" height="70" as="geometry" />
        </mxCell>
        <mxCell id="z2DISsv2LG4X6NB8Ws7r-14" value="" style="ellipse;fillColor=#19EAFA;opacity=60;strokeColor=none;html=1;fontColor=#FFFFFF;" vertex="1" parent="1">
          <mxGeometry x="-260.14" y="165" width="530" height="530" as="geometry" />
        </mxCell>
        <mxCell id="z2DISsv2LG4X6NB8Ws7r-12" value="&lt;font style=&quot;font-size: 36px;&quot; color=&quot;#000000&quot;&gt;IDS&lt;/font&gt;" style="text;fontSize=24;align=center;verticalAlign=middle;html=1;fontColor=#FFFFFF;" vertex="1" parent="1">
          <mxGeometry x="-40.14" y="190" width="90" height="50" as="geometry" />
        </mxCell>
        <mxCell id="z2DISsv2LG4X6NB8Ws7r-13" value="&lt;font style=&quot;font-size: 36px;&quot; color=&quot;#000000&quot;&gt;Data Space&lt;br&gt;&lt;/font&gt;" style="text;fontSize=24;align=center;verticalAlign=middle;html=1;fontColor=#FFFFFF;" vertex="1" parent="1">
          <mxGeometry x="-57.86" y="110" width="135.71" height="50" as="geometry" />
        </mxCell>
        <mxCell id="kTy7GrgsdUTNaHxn3rbE-2" value="&lt;font style=&quot;font-size: 36px;&quot; color=&quot;#000000&quot;&gt;Interoperability&lt;br&gt;Layers&lt;br&gt;&lt;/font&gt;" style="text;fontSize=24;align=center;verticalAlign=middle;html=1;fontColor=#FFFFFF;" vertex="1" parent="1">
          <mxGeometry x="-490" y="40" width="140" height="50" as="geometry" />
        </mxCell>
        <mxCell id="kTy7GrgsdUTNaHxn3rbE-6" value="" style="ellipse;fillColor=#FFB366;opacity=60;strokeColor=none;html=1;fontColor=#FFFFFF;rotation=0;" vertex="1" parent="1">
          <mxGeometry x="-650" y="645" width="310" height="165" as="geometry" />
        </mxCell>
        <mxCell id="kTy7GrgsdUTNaHxn3rbE-3" value="" style="ellipse;fillColor=#FFFFCC;opacity=60;strokeColor=none;html=1;fontColor=#FFFFFF;rotation=0;" vertex="1" parent="1">
          <mxGeometry x="-710" y="220.74" width="804.07" height="408.52" as="geometry" />
        </mxCell>
        <mxCell id="kTy7GrgsdUTNaHxn3rbE-4" value="&lt;font style=&quot;font-size: 36px;&quot; color=&quot;#000000&quot;&gt;Syntactic&lt;br&gt;Interoperability&lt;br&gt;&lt;/font&gt;" style="text;fontSize=24;align=center;verticalAlign=middle;html=1;fontColor=#FFFFFF;" vertex="1" parent="1">
          <mxGeometry x="-620" y="380" width="140" height="50" as="geometry" />
        </mxCell>
        <mxCell id="kTy7GrgsdUTNaHxn3rbE-9" value="&lt;font style=&quot;font-size: 36px;&quot; color=&quot;#000000&quot;&gt;Semantic&lt;br&gt;Interoperability&lt;br&gt;&lt;/font&gt;" style="text;fontSize=24;align=center;verticalAlign=middle;html=1;fontColor=#FFFFFF;" vertex="1" parent="1">
          <mxGeometry x="-565" y="702.5" width="140" height="50" as="geometry" />
        </mxCell>
        <mxCell id="kTy7GrgsdUTNaHxn3rbE-11" value="" style="ellipse;fillColor=#FF9999;opacity=60;strokeColor=none;html=1;fontColor=#FFFFFF;rotation=0;" vertex="1" parent="1">
          <mxGeometry x="-85" y="210" width="846.35" height="430" as="geometry" />
        </mxCell>
        <mxCell id="z2DISsv2LG4X6NB8Ws7r-18" value="&lt;font style=&quot;font-size: 36px;&quot; color=&quot;#000000&quot;&gt;Research&lt;br&gt;Scope&lt;br&gt;&lt;/font&gt;" style="text;fontSize=24;align=center;verticalAlign=middle;html=1;fontColor=#FFFFFF;fontStyle=1" vertex="1" parent="1">
          <mxGeometry x="-65.14" y="400" width="140" height="50" as="geometry" />
        </mxCell>
        <mxCell id="z2DISsv2LG4X6NB8Ws7r-16" value="&lt;font style=&quot;font-size: 36px;&quot; color=&quot;#000000&quot;&gt;Logistics&lt;br&gt;Domain&lt;br&gt;&lt;/font&gt;" style="text;fontSize=24;align=center;verticalAlign=middle;html=1;fontColor=#FFFFFF;" vertex="1" parent="1">
          <mxGeometry x="470" y="380" width="135.71" height="50" as="geometry" />
        </mxCell>
      </root>
    </mxGraphModel>
  </diagram>
  <diagram id="qYygRBMncs04BexQxSvl" name="ISim-proposed-approach">
    <mxGraphModel grid="1" page="1" gridSize="10" guides="1" tooltips="1" connect="1" arrows="1" fold="1" pageScale="1" pageWidth="850" pageHeight="1100" math="0" shadow="0">
      <root>
        <mxCell id="0" />
        <mxCell id="1" parent="0" />
        <mxCell id="N1h7dv0qbfVJj47HPJCp-1" value="" style="html=1;outlineConnect=0;whiteSpace=wrap;fillColor=#99ffff;shape=mxgraph.archimate3.application;appType=comp;archiType=square;" vertex="1" parent="1">
          <mxGeometry x="350" y="70" width="550" height="350" as="geometry" />
        </mxCell>
        <mxCell id="S_fc7x3CtLWvrZGQHom0-9" value="" style="html=1;outlineConnect=0;whiteSpace=wrap;fillColor=#99ffff;shape=mxgraph.archimate.application;appType=comp;" vertex="1" parent="1">
          <mxGeometry x="375" y="120" width="500" height="280" as="geometry" />
        </mxCell>
        <mxCell id="CJYj2jLU-K-1ujODnqiH-13" value="" style="html=1;outlineConnect=0;whiteSpace=wrap;fillColor=#99ffff;shape=mxgraph.archimate.application;appType=comp" vertex="1" parent="1">
          <mxGeometry x="500" y="240" width="230" height="150" as="geometry" />
        </mxCell>
        <mxCell id="S_fc7x3CtLWvrZGQHom0-3" value="" style="html=1;outlineConnect=0;whiteSpace=wrap;fillColor=#99ffff;shape=mxgraph.archimate.application;appType=comp" vertex="1" parent="1">
          <mxGeometry y="170" width="210" height="180" as="geometry" />
        </mxCell>
        <mxCell id="S_fc7x3CtLWvrZGQHom0-4" value="" style="html=1;outlineConnect=0;whiteSpace=wrap;fillColor=#99ffff;shape=mxgraph.archimate3.businessObject;overflow=fill;movable=1;resizable=1;rotatable=1;deletable=1;editable=1;locked=0;connectable=1;" vertex="1" parent="1">
          <mxGeometry x="20" y="230" width="160" height="90" as="geometry" />
        </mxCell>
        <mxCell id="S_fc7x3CtLWvrZGQHom0-5" value="&lt;div&gt;IDS Connector&lt;br&gt;(Data Provider)&lt;/div&gt;" style="text;strokeColor=none;align=center;fillColor=none;html=1;verticalAlign=middle;whiteSpace=wrap;rounded=0;fontStyle=1" vertex="1" parent="1">
          <mxGeometry x="60" y="180" width="90" height="30" as="geometry" />
        </mxCell>
        <mxCell id="S_fc7x3CtLWvrZGQHom0-6" value="&lt;div&gt;Data Schema e.g., JSON Schema, CSV column names &lt;/div&gt;" style="text;strokeColor=none;align=center;fillColor=none;html=1;verticalAlign=middle;whiteSpace=wrap;rounded=0;movable=1;resizable=1;rotatable=1;deletable=1;editable=1;locked=0;connectable=1;" vertex="1" parent="1">
          <mxGeometry x="40" y="270" width="130" height="30" as="geometry" />
        </mxCell>
        <mxCell id="S_fc7x3CtLWvrZGQHom0-7" style="edgeStyle=orthogonalEdgeStyle;rounded=0;orthogonalLoop=1;jettySize=auto;html=1;exitX=0.5;exitY=1;exitDx=0;exitDy=0;movable=0;resizable=0;rotatable=0;deletable=0;editable=0;locked=1;connectable=0;" edge="1" parent="1" source="S_fc7x3CtLWvrZGQHom0-6" target="S_fc7x3CtLWvrZGQHom0-6">
          <mxGeometry relative="1" as="geometry" />
        </mxCell>
        <mxCell id="xAmVkKKanxnWVprncJKo-3" style="edgeStyle=orthogonalEdgeStyle;rounded=0;orthogonalLoop=1;jettySize=auto;html=1;exitX=1;exitY=0.5;exitDx=0;exitDy=0;exitPerimeter=0;" edge="1" parent="1" source="S_fc7x3CtLWvrZGQHom0-9" target="S_fc7x3CtLWvrZGQHom0-18">
          <mxGeometry relative="1" as="geometry" />
        </mxCell>
        <mxCell id="S_fc7x3CtLWvrZGQHom0-10" value="Interoperability&lt;br&gt;Simulator" style="text;strokeColor=none;align=center;fillColor=none;html=1;verticalAlign=middle;whiteSpace=wrap;rounded=0;fontStyle=1" vertex="1" parent="1">
          <mxGeometry x="555" y="122" width="90" height="30" as="geometry" />
        </mxCell>
        <mxCell id="S_fc7x3CtLWvrZGQHom0-13" value="" style="endArrow=classic;html=1;rounded=0;exitX=1;exitY=0.5;exitDx=0;exitDy=0;exitPerimeter=0;entryX=0;entryY=0.5;entryDx=0;entryDy=0;entryPerimeter=0;" edge="1" parent="1" source="S_fc7x3CtLWvrZGQHom0-3" target="S_fc7x3CtLWvrZGQHom0-9">
          <mxGeometry width="50" height="50" relative="1" as="geometry">
            <mxPoint x="130" y="430" as="sourcePoint" />
            <mxPoint x="180" y="380" as="targetPoint" />
          </mxGeometry>
        </mxCell>
        <mxCell id="S_fc7x3CtLWvrZGQHom0-15" value="Similarity&lt;br&gt;Flooding" style="html=1;outlineConnect=0;whiteSpace=wrap;fillColor=#99ffff;shape=mxgraph.archimate.application;appType=comp" vertex="1" parent="1">
          <mxGeometry x="506" y="330" width="105" height="40" as="geometry" />
        </mxCell>
        <mxCell id="S_fc7x3CtLWvrZGQHom0-16" value="Cupid" style="html=1;outlineConnect=0;whiteSpace=wrap;fillColor=#99ffff;shape=mxgraph.archimate.application;appType=comp" vertex="1" parent="1">
          <mxGeometry x="616.5" y="280" width="104.5" height="40" as="geometry" />
        </mxCell>
        <mxCell id="S_fc7x3CtLWvrZGQHom0-18" value="" style="html=1;outlineConnect=0;whiteSpace=wrap;fillColor=#99ffff;shape=mxgraph.archimate.application;appType=comp;movable=1;resizable=1;rotatable=1;deletable=1;editable=1;locked=0;connectable=1;" vertex="1" parent="1">
          <mxGeometry x="1040" y="170" width="210" height="180" as="geometry" />
        </mxCell>
        <mxCell id="S_fc7x3CtLWvrZGQHom0-19" value="" style="html=1;outlineConnect=0;whiteSpace=wrap;fillColor=#99ffff;shape=mxgraph.archimate3.businessObject;overflow=fill;movable=1;resizable=1;rotatable=1;deletable=1;editable=1;locked=0;connectable=1;" vertex="1" parent="1">
          <mxGeometry x="1065" y="236" width="160" height="90" as="geometry" />
        </mxCell>
        <mxCell id="S_fc7x3CtLWvrZGQHom0-20" value="&lt;div&gt;IDS Connector&lt;br&gt;(Data Consumer)&lt;/div&gt;" style="text;strokeColor=none;align=center;fillColor=none;html=1;verticalAlign=middle;whiteSpace=wrap;rounded=0;fontStyle=1;movable=1;resizable=1;rotatable=1;deletable=1;editable=1;locked=0;connectable=1;" vertex="1" parent="1">
          <mxGeometry x="1080" y="176.5" width="120" height="30" as="geometry" />
        </mxCell>
        <mxCell id="S_fc7x3CtLWvrZGQHom0-21" value="&lt;div&gt;Data Schema e.g., JSON Schema, CSV column names &lt;/div&gt;" style="text;strokeColor=none;align=center;fillColor=none;html=1;verticalAlign=middle;whiteSpace=wrap;rounded=0;movable=1;resizable=1;rotatable=1;deletable=1;editable=1;locked=0;connectable=1;" vertex="1" parent="1">
          <mxGeometry x="1081" y="271" width="130" height="30" as="geometry" />
        </mxCell>
        <mxCell id="S_fc7x3CtLWvrZGQHom0-22" style="edgeStyle=orthogonalEdgeStyle;rounded=0;orthogonalLoop=1;jettySize=auto;html=1;exitX=0.5;exitY=1;exitDx=0;exitDy=0;movable=0;resizable=0;rotatable=0;deletable=0;editable=0;locked=1;connectable=0;" edge="1" parent="1" source="S_fc7x3CtLWvrZGQHom0-21" target="S_fc7x3CtLWvrZGQHom0-21">
          <mxGeometry relative="1" as="geometry" />
        </mxCell>
        <mxCell id="S_fc7x3CtLWvrZGQHom0-23" value="" style="endArrow=classic;html=1;rounded=0;edgeStyle=orthogonalEdgeStyle;entryX=0;entryY=0.5;entryDx=0;entryDy=0;entryPerimeter=0;exitX=0.5;exitY=0;exitDx=0;exitDy=0;exitPerimeter=0;" edge="1" parent="1" source="S_fc7x3CtLWvrZGQHom0-18" target="S_fc7x3CtLWvrZGQHom0-9">
          <mxGeometry width="50" height="50" relative="1" as="geometry">
            <mxPoint x="1150" y="80" as="sourcePoint" />
            <mxPoint x="310" y="90" as="targetPoint" />
            <Array as="points">
              <mxPoint x="1135" y="170" />
              <mxPoint x="1135" y="20" />
              <mxPoint x="310" y="20" />
              <mxPoint x="310" y="260" />
            </Array>
          </mxGeometry>
        </mxCell>
        <mxCell id="S_fc7x3CtLWvrZGQHom0-24" value="Data Schema&lt;br&gt;and&lt;br&gt;Pricing Information" style="text;strokeColor=none;align=center;fillColor=none;html=1;verticalAlign=middle;whiteSpace=wrap;rounded=0;" vertex="1" parent="1">
          <mxGeometry x="210" y="270" width="110" height="30" as="geometry" />
        </mxCell>
        <mxCell id="S_fc7x3CtLWvrZGQHom0-26" value="Data Schema" style="text;strokeColor=none;align=center;fillColor=none;html=1;verticalAlign=middle;whiteSpace=wrap;rounded=0;movable=0;resizable=0;rotatable=0;deletable=0;editable=0;locked=1;connectable=0;" vertex="1" parent="1">
          <mxGeometry x="1122" y="130" width="110" height="30" as="geometry" />
        </mxCell>
        <mxCell id="S_fc7x3CtLWvrZGQHom0-27" value="Data Schemas&lt;br&gt;and&lt;br&gt;Chosen Matcher" style="text;strokeColor=none;align=center;fillColor=none;html=1;verticalAlign=middle;whiteSpace=wrap;rounded=0;" vertex="1" parent="1">
          <mxGeometry x="379" y="296" width="95" height="50" as="geometry" />
        </mxCell>
        <mxCell id="S_fc7x3CtLWvrZGQHom0-35" value="Schema-Matching&lt;br&gt;Results" style="text;strokeColor=none;align=center;fillColor=none;html=1;verticalAlign=middle;whiteSpace=wrap;rounded=0;" vertex="1" parent="1">
          <mxGeometry x="755" y="300" width="115" height="40" as="geometry" />
        </mxCell>
        <mxCell id="CJYj2jLU-K-1ujODnqiH-7" value="Pricing Information" style="text;strokeColor=none;align=center;fillColor=none;html=1;verticalAlign=middle;whiteSpace=wrap;rounded=0;" vertex="1" parent="1">
          <mxGeometry x="395" y="185" width="75" height="30" as="geometry" />
        </mxCell>
        <mxCell id="CJYj2jLU-K-1ujODnqiH-9" value="" style="html=1;outlineConnect=0;whiteSpace=wrap;fillColor=#99ffff;shape=mxgraph.archimate.application;appType=comp" vertex="1" parent="1">
          <mxGeometry x="500" y="172.5" width="140" height="55" as="geometry" />
        </mxCell>
        <mxCell id="CJYj2jLU-K-1ujODnqiH-10" value="Pricing&lt;br&gt;Calculator" style="text;strokeColor=none;align=center;fillColor=none;html=1;verticalAlign=middle;whiteSpace=wrap;rounded=0;" vertex="1" parent="1">
          <mxGeometry x="525" y="176.5" width="90" height="37" as="geometry" />
        </mxCell>
        <mxCell id="CJYj2jLU-K-1ujODnqiH-11" value="Calculated&lt;br&gt;Cost" style="text;strokeColor=none;align=center;fillColor=none;html=1;verticalAlign=middle;whiteSpace=wrap;rounded=0;" vertex="1" parent="1">
          <mxGeometry x="715" y="185" width="75" height="30" as="geometry" />
        </mxCell>
        <mxCell id="S_fc7x3CtLWvrZGQHom0-14" value="COMA" style="html=1;outlineConnect=0;whiteSpace=wrap;fillColor=#99ffff;shape=mxgraph.archimate.application;appType=comp" vertex="1" parent="1">
          <mxGeometry x="506" y="280" width="105" height="40" as="geometry" />
        </mxCell>
        <mxCell id="CJYj2jLU-K-1ujODnqiH-15" value="Schema&lt;br&gt;Matchers" style="text;strokeColor=none;align=center;fillColor=none;html=1;verticalAlign=middle;whiteSpace=wrap;rounded=0;" vertex="1" parent="1">
          <mxGeometry x="570" y="242" width="90" height="30" as="geometry" />
        </mxCell>
        <mxCell id="xAmVkKKanxnWVprncJKo-4" value="Interoperability Scenario Results" style="text;strokeColor=none;align=center;fillColor=none;html=1;verticalAlign=middle;whiteSpace=wrap;rounded=0;" vertex="1" parent="1">
          <mxGeometry x="900" y="266" width="140" height="30" as="geometry" />
        </mxCell>
        <mxCell id="jJxCfcLQZZWrlsMxCoeD-4" value="" style="endArrow=classic;dashed=1;html=1;rounded=0;exitX=0;exitY=0.5;exitDx=0;exitDy=0;exitPerimeter=0;entryX=0;entryY=0.5;entryDx=0;entryDy=0;entryPerimeter=0;endFill=1;" edge="1" parent="1" source="S_fc7x3CtLWvrZGQHom0-9" target="CJYj2jLU-K-1ujODnqiH-9">
          <mxGeometry width="50" height="50" relative="1" as="geometry">
            <mxPoint x="465" y="200" as="sourcePoint" />
            <mxPoint x="515" y="150" as="targetPoint" />
          </mxGeometry>
        </mxCell>
        <mxCell id="LQhtVdRhKpGHP_8H14m3-2" value="" style="endArrow=classic;dashed=1;html=1;rounded=0;exitX=0;exitY=0.5;exitDx=0;exitDy=0;exitPerimeter=0;entryX=0;entryY=0.5;entryDx=0;entryDy=0;entryPerimeter=0;endFill=1;" edge="1" parent="1" source="S_fc7x3CtLWvrZGQHom0-9" target="CJYj2jLU-K-1ujODnqiH-13">
          <mxGeometry width="50" height="50" relative="1" as="geometry">
            <mxPoint x="415" y="260" as="sourcePoint" />
            <mxPoint x="515" y="104" as="targetPoint" />
          </mxGeometry>
        </mxCell>
        <mxCell id="LQhtVdRhKpGHP_8H14m3-3" value="" style="endArrow=classic;dashed=1;html=1;rounded=0;exitX=1;exitY=0.5;exitDx=0;exitDy=0;exitPerimeter=0;entryX=1;entryY=0.5;entryDx=0;entryDy=0;entryPerimeter=0;endFill=1;" edge="1" parent="1" source="CJYj2jLU-K-1ujODnqiH-9" target="S_fc7x3CtLWvrZGQHom0-9">
          <mxGeometry width="50" height="50" relative="1" as="geometry">
            <mxPoint x="750" y="245" as="sourcePoint" />
            <mxPoint x="875" y="185" as="targetPoint" />
          </mxGeometry>
        </mxCell>
        <mxCell id="LQhtVdRhKpGHP_8H14m3-4" value="" style="endArrow=classic;dashed=1;html=1;rounded=0;exitX=1;exitY=0.5;exitDx=0;exitDy=0;exitPerimeter=0;entryX=1;entryY=0.5;entryDx=0;entryDy=0;entryPerimeter=0;endFill=1;" edge="1" parent="1" source="CJYj2jLU-K-1ujODnqiH-13" target="S_fc7x3CtLWvrZGQHom0-9">
          <mxGeometry width="50" height="50" relative="1" as="geometry">
            <mxPoint x="650" y="210" as="sourcePoint" />
            <mxPoint x="915" y="270" as="targetPoint" />
          </mxGeometry>
        </mxCell>
        <mxCell id="N1h7dv0qbfVJj47HPJCp-2" value="Vocabulary Hub" style="text;strokeColor=none;align=center;fillColor=none;html=1;verticalAlign=middle;whiteSpace=wrap;rounded=0;fontStyle=1" vertex="1" parent="1">
          <mxGeometry x="580" y="70" width="90" height="30" as="geometry" />
        </mxCell>
      </root>
    </mxGraphModel>
  </diagram>
  <diagram id="fHIGG-TvdvdvLtAW-GXI" name="interoperability-scenario">
    <mxGraphModel grid="1" page="1" gridSize="10" guides="1" tooltips="1" connect="1" arrows="1" fold="1" pageScale="1" pageWidth="850" pageHeight="1100" math="0" shadow="0">
      <root>
        <mxCell id="0" />
        <mxCell id="1" parent="0" />
        <mxCell id="vRUqpxN3ERmwjK1jdKNY-53" value="" style="shape=table;startSize=0;container=1;collapsible=0;childLayout=tableLayout;" vertex="1" parent="1">
          <mxGeometry x="10" y="60" width="260" height="80" as="geometry" />
        </mxCell>
        <mxCell id="vRUqpxN3ERmwjK1jdKNY-54" value="" style="shape=tableRow;horizontal=0;startSize=0;swimlaneHead=0;swimlaneBody=0;strokeColor=inherit;top=0;left=0;bottom=0;right=0;collapsible=0;dropTarget=0;fillColor=none;points=[[0,0.5],[1,0.5]];portConstraint=eastwest;" vertex="1" parent="vRUqpxN3ERmwjK1jdKNY-53">
          <mxGeometry width="260" height="28" as="geometry" />
        </mxCell>
        <mxCell id="vRUqpxN3ERmwjK1jdKNY-55" value="student_id" style="shape=partialRectangle;html=1;whiteSpace=wrap;connectable=0;strokeColor=default;overflow=hidden;fillColor=#E6E6E6;top=0;left=0;bottom=0;right=0;pointerEvents=1;fillStyle=auto;gradientColor=none;perimeterSpacing=6;strokeWidth=7;" vertex="1" parent="vRUqpxN3ERmwjK1jdKNY-54">
          <mxGeometry width="65" height="28" as="geometry">
            <mxRectangle width="65" height="28" as="alternateBounds" />
          </mxGeometry>
        </mxCell>
        <mxCell id="vRUqpxN3ERmwjK1jdKNY-56" value="cohort" style="shape=partialRectangle;html=1;whiteSpace=wrap;connectable=0;strokeColor=inherit;overflow=hidden;fillColor=#E6E6E6;top=0;left=0;bottom=0;right=0;pointerEvents=1;" vertex="1" parent="vRUqpxN3ERmwjK1jdKNY-54">
          <mxGeometry x="65" width="65" height="28" as="geometry">
            <mxRectangle width="65" height="28" as="alternateBounds" />
          </mxGeometry>
        </mxCell>
        <mxCell id="vRUqpxN3ERmwjK1jdKNY-57" value="name" style="shape=partialRectangle;html=1;whiteSpace=wrap;connectable=0;strokeColor=inherit;overflow=hidden;fillColor=#E6E6E6;top=0;left=0;bottom=0;right=0;pointerEvents=1;" vertex="1" parent="vRUqpxN3ERmwjK1jdKNY-54">
          <mxGeometry x="130" width="65" height="28" as="geometry">
            <mxRectangle width="65" height="28" as="alternateBounds" />
          </mxGeometry>
        </mxCell>
        <mxCell id="vRUqpxN3ERmwjK1jdKNY-58" value="score" style="shape=partialRectangle;html=1;whiteSpace=wrap;connectable=0;strokeColor=inherit;overflow=hidden;fillColor=#E6E6E6;top=0;left=0;bottom=0;right=0;pointerEvents=1;" vertex="1" parent="vRUqpxN3ERmwjK1jdKNY-54">
          <mxGeometry x="195" width="65" height="28" as="geometry">
            <mxRectangle width="65" height="28" as="alternateBounds" />
          </mxGeometry>
        </mxCell>
        <mxCell id="vRUqpxN3ERmwjK1jdKNY-59" value="" style="shape=tableRow;horizontal=0;startSize=0;swimlaneHead=0;swimlaneBody=0;strokeColor=inherit;top=0;left=0;bottom=0;right=0;collapsible=0;dropTarget=0;fillColor=none;points=[[0,0.5],[1,0.5]];portConstraint=eastwest;" vertex="1" parent="vRUqpxN3ERmwjK1jdKNY-53">
          <mxGeometry y="28" width="260" height="24" as="geometry" />
        </mxCell>
        <mxCell id="vRUqpxN3ERmwjK1jdKNY-60" value="1" style="shape=partialRectangle;html=1;whiteSpace=wrap;connectable=0;strokeColor=inherit;overflow=hidden;fillColor=none;top=0;left=0;bottom=0;right=0;pointerEvents=1;" vertex="1" parent="vRUqpxN3ERmwjK1jdKNY-59">
          <mxGeometry width="65" height="24" as="geometry">
            <mxRectangle width="65" height="24" as="alternateBounds" />
          </mxGeometry>
        </mxCell>
        <mxCell id="vRUqpxN3ERmwjK1jdKNY-61" value="2022" style="shape=partialRectangle;html=1;whiteSpace=wrap;connectable=0;strokeColor=inherit;overflow=hidden;fillColor=none;top=0;left=0;bottom=0;right=0;pointerEvents=1;" vertex="1" parent="vRUqpxN3ERmwjK1jdKNY-59">
          <mxGeometry x="65" width="65" height="24" as="geometry">
            <mxRectangle width="65" height="24" as="alternateBounds" />
          </mxGeometry>
        </mxCell>
        <mxCell id="vRUqpxN3ERmwjK1jdKNY-62" value="Alice" style="shape=partialRectangle;html=1;whiteSpace=wrap;connectable=0;strokeColor=inherit;overflow=hidden;fillColor=none;top=0;left=0;bottom=0;right=0;pointerEvents=1;" vertex="1" parent="vRUqpxN3ERmwjK1jdKNY-59">
          <mxGeometry x="130" width="65" height="24" as="geometry">
            <mxRectangle width="65" height="24" as="alternateBounds" />
          </mxGeometry>
        </mxCell>
        <mxCell id="vRUqpxN3ERmwjK1jdKNY-63" value="90" style="shape=partialRectangle;html=1;whiteSpace=wrap;connectable=0;strokeColor=inherit;overflow=hidden;fillColor=none;top=0;left=0;bottom=0;right=0;pointerEvents=1;" vertex="1" parent="vRUqpxN3ERmwjK1jdKNY-59">
          <mxGeometry x="195" width="65" height="24" as="geometry">
            <mxRectangle width="65" height="24" as="alternateBounds" />
          </mxGeometry>
        </mxCell>
        <mxCell id="vRUqpxN3ERmwjK1jdKNY-64" value="" style="shape=tableRow;horizontal=0;startSize=0;swimlaneHead=0;swimlaneBody=0;strokeColor=inherit;top=0;left=0;bottom=0;right=0;collapsible=0;dropTarget=0;fillColor=none;points=[[0,0.5],[1,0.5]];portConstraint=eastwest;" vertex="1" parent="vRUqpxN3ERmwjK1jdKNY-53">
          <mxGeometry y="52" width="260" height="28" as="geometry" />
        </mxCell>
        <mxCell id="vRUqpxN3ERmwjK1jdKNY-65" value="2" style="shape=partialRectangle;html=1;whiteSpace=wrap;connectable=0;strokeColor=inherit;overflow=hidden;fillColor=none;top=0;left=0;bottom=0;right=0;pointerEvents=1;" vertex="1" parent="vRUqpxN3ERmwjK1jdKNY-64">
          <mxGeometry width="65" height="28" as="geometry">
            <mxRectangle width="65" height="28" as="alternateBounds" />
          </mxGeometry>
        </mxCell>
        <mxCell id="vRUqpxN3ERmwjK1jdKNY-66" value="2023" style="shape=partialRectangle;html=1;whiteSpace=wrap;connectable=0;strokeColor=inherit;overflow=hidden;fillColor=none;top=0;left=0;bottom=0;right=0;pointerEvents=1;" vertex="1" parent="vRUqpxN3ERmwjK1jdKNY-64">
          <mxGeometry x="65" width="65" height="28" as="geometry">
            <mxRectangle width="65" height="28" as="alternateBounds" />
          </mxGeometry>
        </mxCell>
        <mxCell id="vRUqpxN3ERmwjK1jdKNY-67" value="Bob" style="shape=partialRectangle;html=1;whiteSpace=wrap;connectable=0;strokeColor=inherit;overflow=hidden;fillColor=none;top=0;left=0;bottom=0;right=0;pointerEvents=1;" vertex="1" parent="vRUqpxN3ERmwjK1jdKNY-64">
          <mxGeometry x="130" width="65" height="28" as="geometry">
            <mxRectangle width="65" height="28" as="alternateBounds" />
          </mxGeometry>
        </mxCell>
        <mxCell id="vRUqpxN3ERmwjK1jdKNY-68" value="70" style="shape=partialRectangle;html=1;whiteSpace=wrap;connectable=0;strokeColor=inherit;overflow=hidden;fillColor=none;top=0;left=0;bottom=0;right=0;pointerEvents=1;" vertex="1" parent="vRUqpxN3ERmwjK1jdKNY-64">
          <mxGeometry x="195" width="65" height="28" as="geometry">
            <mxRectangle width="65" height="28" as="alternateBounds" />
          </mxGeometry>
        </mxCell>
        <mxCell id="vRUqpxN3ERmwjK1jdKNY-69" value="" style="shape=table;startSize=0;container=1;collapsible=0;childLayout=tableLayout;" vertex="1" parent="1">
          <mxGeometry x="300" y="60" width="195" height="80" as="geometry" />
        </mxCell>
        <mxCell id="vRUqpxN3ERmwjK1jdKNY-70" value="" style="shape=tableRow;horizontal=0;startSize=0;swimlaneHead=0;swimlaneBody=0;strokeColor=inherit;top=0;left=0;bottom=0;right=0;collapsible=0;dropTarget=0;fillColor=none;points=[[0,0.5],[1,0.5]];portConstraint=eastwest;" vertex="1" parent="vRUqpxN3ERmwjK1jdKNY-69">
          <mxGeometry width="195" height="28" as="geometry" />
        </mxCell>
        <mxCell id="vRUqpxN3ERmwjK1jdKNY-71" value="id" style="shape=partialRectangle;html=1;whiteSpace=wrap;connectable=0;strokeColor=inherit;overflow=hidden;fillColor=#E6E6E6;top=0;left=0;bottom=0;right=0;pointerEvents=1;" vertex="1" parent="vRUqpxN3ERmwjK1jdKNY-70">
          <mxGeometry width="65" height="28" as="geometry">
            <mxRectangle width="65" height="28" as="alternateBounds" />
          </mxGeometry>
        </mxCell>
        <mxCell id="vRUqpxN3ERmwjK1jdKNY-72" value="name" style="shape=partialRectangle;html=1;whiteSpace=wrap;connectable=0;strokeColor=inherit;overflow=hidden;fillColor=#E6E6E6;top=0;left=0;bottom=0;right=0;pointerEvents=1;" vertex="1" parent="vRUqpxN3ERmwjK1jdKNY-70">
          <mxGeometry x="65" width="65" height="28" as="geometry">
            <mxRectangle width="65" height="28" as="alternateBounds" />
          </mxGeometry>
        </mxCell>
        <mxCell id="vRUqpxN3ERmwjK1jdKNY-73" value="score" style="shape=partialRectangle;html=1;whiteSpace=wrap;connectable=0;strokeColor=inherit;overflow=hidden;fillColor=#E6E6E6;top=0;left=0;bottom=0;right=0;pointerEvents=1;" vertex="1" parent="vRUqpxN3ERmwjK1jdKNY-70">
          <mxGeometry x="130" width="65" height="28" as="geometry">
            <mxRectangle width="65" height="28" as="alternateBounds" />
          </mxGeometry>
        </mxCell>
        <mxCell id="vRUqpxN3ERmwjK1jdKNY-75" value="" style="shape=tableRow;horizontal=0;startSize=0;swimlaneHead=0;swimlaneBody=0;strokeColor=inherit;top=0;left=0;bottom=0;right=0;collapsible=0;dropTarget=0;fillColor=none;points=[[0,0.5],[1,0.5]];portConstraint=eastwest;" vertex="1" parent="vRUqpxN3ERmwjK1jdKNY-69">
          <mxGeometry y="28" width="195" height="24" as="geometry" />
        </mxCell>
        <mxCell id="vRUqpxN3ERmwjK1jdKNY-76" value="1" style="shape=partialRectangle;html=1;whiteSpace=wrap;connectable=0;strokeColor=inherit;overflow=hidden;fillColor=none;top=0;left=0;bottom=0;right=0;pointerEvents=1;" vertex="1" parent="vRUqpxN3ERmwjK1jdKNY-75">
          <mxGeometry width="65" height="24" as="geometry">
            <mxRectangle width="65" height="24" as="alternateBounds" />
          </mxGeometry>
        </mxCell>
        <mxCell id="vRUqpxN3ERmwjK1jdKNY-77" value="Alice" style="shape=partialRectangle;html=1;whiteSpace=wrap;connectable=0;strokeColor=inherit;overflow=hidden;fillColor=none;top=0;left=0;bottom=0;right=0;pointerEvents=1;" vertex="1" parent="vRUqpxN3ERmwjK1jdKNY-75">
          <mxGeometry x="65" width="65" height="24" as="geometry">
            <mxRectangle width="65" height="24" as="alternateBounds" />
          </mxGeometry>
        </mxCell>
        <mxCell id="vRUqpxN3ERmwjK1jdKNY-78" value="A" style="shape=partialRectangle;html=1;whiteSpace=wrap;connectable=0;strokeColor=inherit;overflow=hidden;fillColor=none;top=0;left=0;bottom=0;right=0;pointerEvents=1;" vertex="1" parent="vRUqpxN3ERmwjK1jdKNY-75">
          <mxGeometry x="130" width="65" height="24" as="geometry">
            <mxRectangle width="65" height="24" as="alternateBounds" />
          </mxGeometry>
        </mxCell>
        <mxCell id="vRUqpxN3ERmwjK1jdKNY-80" value="" style="shape=tableRow;horizontal=0;startSize=0;swimlaneHead=0;swimlaneBody=0;strokeColor=inherit;top=0;left=0;bottom=0;right=0;collapsible=0;dropTarget=0;fillColor=none;points=[[0,0.5],[1,0.5]];portConstraint=eastwest;" vertex="1" parent="vRUqpxN3ERmwjK1jdKNY-69">
          <mxGeometry y="52" width="195" height="28" as="geometry" />
        </mxCell>
        <mxCell id="vRUqpxN3ERmwjK1jdKNY-81" value="2" style="shape=partialRectangle;html=1;whiteSpace=wrap;connectable=0;strokeColor=inherit;overflow=hidden;fillColor=none;top=0;left=0;bottom=0;right=0;pointerEvents=1;" vertex="1" parent="vRUqpxN3ERmwjK1jdKNY-80">
          <mxGeometry width="65" height="28" as="geometry">
            <mxRectangle width="65" height="28" as="alternateBounds" />
          </mxGeometry>
        </mxCell>
        <mxCell id="vRUqpxN3ERmwjK1jdKNY-82" value="Bob" style="shape=partialRectangle;html=1;whiteSpace=wrap;connectable=0;strokeColor=inherit;overflow=hidden;fillColor=none;top=0;left=0;bottom=0;right=0;pointerEvents=1;" vertex="1" parent="vRUqpxN3ERmwjK1jdKNY-80">
          <mxGeometry x="65" width="65" height="28" as="geometry">
            <mxRectangle width="65" height="28" as="alternateBounds" />
          </mxGeometry>
        </mxCell>
        <mxCell id="vRUqpxN3ERmwjK1jdKNY-83" value="B" style="shape=partialRectangle;html=1;whiteSpace=wrap;connectable=0;strokeColor=inherit;overflow=hidden;fillColor=none;top=0;left=0;bottom=0;right=0;pointerEvents=1;" vertex="1" parent="vRUqpxN3ERmwjK1jdKNY-80">
          <mxGeometry x="130" width="65" height="28" as="geometry">
            <mxRectangle width="65" height="28" as="alternateBounds" />
          </mxGeometry>
        </mxCell>
        <mxCell id="vRUqpxN3ERmwjK1jdKNY-92" value="" style="curved=1;endArrow=classic;html=1;rounded=0;exitX=0.122;exitY=0.014;exitDx=0;exitDy=0;exitPerimeter=0;" edge="1" parent="1" source="vRUqpxN3ERmwjK1jdKNY-54">
          <mxGeometry width="50" height="50" relative="1" as="geometry">
            <mxPoint x="110" y="30" as="sourcePoint" />
            <mxPoint x="332" y="60" as="targetPoint" />
            <Array as="points">
              <mxPoint x="90" y="10" />
              <mxPoint x="310" y="10" />
            </Array>
          </mxGeometry>
        </mxCell>
        <mxCell id="vRUqpxN3ERmwjK1jdKNY-94" value="" style="curved=1;endArrow=classic;html=1;rounded=0;exitX=0.62;exitY=0.005;exitDx=0;exitDy=0;exitPerimeter=0;" edge="1" parent="1" source="vRUqpxN3ERmwjK1jdKNY-54">
          <mxGeometry width="50" height="50" relative="1" as="geometry">
            <mxPoint x="160" y="40" as="sourcePoint" />
            <mxPoint x="398" y="60" as="targetPoint" />
            <Array as="points">
              <mxPoint x="200" y="40" />
              <mxPoint x="370" y="40" />
            </Array>
          </mxGeometry>
        </mxCell>
        <mxCell id="vRUqpxN3ERmwjK1jdKNY-95" value="" style="curved=1;endArrow=classic;html=1;rounded=0;exitX=0.62;exitY=0.005;exitDx=0;exitDy=0;exitPerimeter=0;" edge="1" parent="1">
          <mxGeometry width="50" height="50" relative="1" as="geometry">
            <mxPoint x="240" y="60" as="sourcePoint" />
            <mxPoint x="467" y="60" as="targetPoint" />
            <Array as="points">
              <mxPoint x="270" y="10" />
              <mxPoint x="450" y="20" />
            </Array>
          </mxGeometry>
        </mxCell>
        <mxCell id="vRUqpxN3ERmwjK1jdKNY-96" value="Provided Data" style="text;strokeColor=none;align=center;fillColor=none;html=1;verticalAlign=middle;whiteSpace=wrap;rounded=0;" vertex="1" parent="1">
          <mxGeometry x="95" y="140" width="90" height="30" as="geometry" />
        </mxCell>
        <mxCell id="vRUqpxN3ERmwjK1jdKNY-97" value="Requested Data" style="text;strokeColor=none;align=center;fillColor=none;html=1;verticalAlign=middle;whiteSpace=wrap;rounded=0;" vertex="1" parent="1">
          <mxGeometry x="348.75" y="140" width="97.5" height="30" as="geometry" />
        </mxCell>
      </root>
    </mxGraphModel>
  </diagram>
  <diagram id="03nDR1S_-pESPXIcX4Vj" name="sequence-API-call">
    <mxGraphModel grid="1" page="1" gridSize="10" guides="1" tooltips="1" connect="1" arrows="1" fold="1" pageScale="1" pageWidth="850" pageHeight="1100" math="0" shadow="0">
      <root>
        <mxCell id="0" />
        <mxCell id="1" parent="0" />
        <mxCell id="XRDcuM7xadx4l9Delaoq-5" value="&lt;div&gt;Matcher&lt;br&gt;&lt;/div&gt;" style="shape=umlLifeline;perimeter=lifelinePerimeter;whiteSpace=wrap;html=1;container=0;dropTarget=0;collapsible=0;recursiveResize=0;outlineConnect=0;portConstraint=eastwest;newEdgeStyle={&quot;edgeStyle&quot;:&quot;elbowEdgeStyle&quot;,&quot;elbow&quot;:&quot;vertical&quot;,&quot;curved&quot;:0,&quot;rounded&quot;:0};" vertex="1" parent="1">
          <mxGeometry x="-445" y="20" width="65" height="420" as="geometry" />
        </mxCell>
        <mxCell id="XRDcuM7xadx4l9Delaoq-6" value="" style="html=1;points=[];perimeter=orthogonalPerimeter;outlineConnect=0;targetShapes=umlLifeline;portConstraint=eastwest;newEdgeStyle={&quot;edgeStyle&quot;:&quot;elbowEdgeStyle&quot;,&quot;elbow&quot;:&quot;vertical&quot;,&quot;curved&quot;:0,&quot;rounded&quot;:0};" vertex="1" parent="XRDcuM7xadx4l9Delaoq-5">
          <mxGeometry x="27.5" y="235" width="10" height="55" as="geometry" />
        </mxCell>
        <mxCell id="XRDcuM7xadx4l9Delaoq-7" value="3.POST /matcher/match-schemas" style="html=1;verticalAlign=bottom;endArrow=block;edgeStyle=elbowEdgeStyle;elbow=vertical;curved=0;rounded=0;movable=1;resizable=1;rotatable=1;deletable=1;editable=1;locked=0;connectable=1;" edge="1" parent="1" target="XRDcuM7xadx4l9Delaoq-6">
          <mxGeometry relative="1" as="geometry">
            <mxPoint x="-660" y="269.71000000000004" as="sourcePoint" />
            <Array as="points">
              <mxPoint x="-510" y="269.71000000000004" />
            </Array>
            <mxPoint x="-330" y="269.71000000000004" as="targetPoint" />
            <mxPoint as="offset" />
          </mxGeometry>
        </mxCell>
        <mxCell id="XRDcuM7xadx4l9Delaoq-3" value="&lt;font style=&quot;font-size: 11px;&quot;&gt;1. POST /isim/simulate&lt;/font&gt;" style="html=1;verticalAlign=bottom;startArrow=oval;endArrow=block;startSize=8;edgeStyle=elbowEdgeStyle;elbow=vertical;curved=0;rounded=0;" edge="1" parent="1" source="TWQ3oDzKfyepJbzFTQKO-1">
          <mxGeometry relative="1" as="geometry">
            <mxPoint x="-789.8333333333333" y="102" as="sourcePoint" />
            <mxPoint as="offset" />
            <mxPoint x="-675" y="102" as="targetPoint" />
          </mxGeometry>
        </mxCell>
        <mxCell id="XRDcuM7xadx4l9Delaoq-8" value="4. Matcher API response" style="html=1;verticalAlign=bottom;endArrow=open;dashed=1;endSize=8;edgeStyle=elbowEdgeStyle;elbow=vertical;curved=0;rounded=0;" edge="1" parent="1" source="XRDcuM7xadx4l9Delaoq-6">
          <mxGeometry x="0.0022" relative="1" as="geometry">
            <mxPoint x="-660" y="294.71000000000004" as="targetPoint" />
            <Array as="points">
              <mxPoint x="-480" y="294.71000000000004" />
            </Array>
            <mxPoint x="-420" y="295" as="sourcePoint" />
            <mxPoint as="offset" />
          </mxGeometry>
        </mxCell>
        <mxCell id="XRDcuM7xadx4l9Delaoq-1" value="&lt;div&gt;Interoperability&lt;/div&gt;Simulator" style="shape=umlLifeline;perimeter=lifelinePerimeter;whiteSpace=wrap;html=1;container=0;dropTarget=0;collapsible=0;recursiveResize=0;outlineConnect=0;portConstraint=eastwest;newEdgeStyle={&quot;edgeStyle&quot;:&quot;elbowEdgeStyle&quot;,&quot;elbow&quot;:&quot;vertical&quot;,&quot;curved&quot;:0,&quot;rounded&quot;:0};" vertex="1" parent="1">
          <mxGeometry x="-720" y="20" width="100" height="420" as="geometry" />
        </mxCell>
        <mxCell id="XRDcuM7xadx4l9Delaoq-2" value="" style="html=1;points=[];perimeter=orthogonalPerimeter;outlineConnect=0;targetShapes=umlLifeline;portConstraint=eastwest;newEdgeStyle={&quot;edgeStyle&quot;:&quot;elbowEdgeStyle&quot;,&quot;elbow&quot;:&quot;vertical&quot;,&quot;curved&quot;:0,&quot;rounded&quot;:0};" vertex="1" parent="1">
          <mxGeometry x="-675" y="90" width="10" height="340" as="geometry" />
        </mxCell>
        <mxCell id="66FyM0BaRjFSsh8Tppoy-6" value="&lt;font style=&quot;font-size: 11px;&quot;&gt;Opt&lt;/font&gt;" style="shape=umlFrame;whiteSpace=wrap;html=1;pointerEvents=0;recursiveResize=0;container=1;collapsible=0;width=43;height=20;" vertex="1" parent="1">
          <mxGeometry x="-690" y="120" width="260" height="80" as="geometry" />
        </mxCell>
        <mxCell id="66FyM0BaRjFSsh8Tppoy-7" value="&lt;font style=&quot;font-size: 11px;&quot;&gt;[if pricing_info is available]&lt;/font&gt;" style="text;align=center;html=1;" vertex="1" parent="66FyM0BaRjFSsh8Tppoy-6">
          <mxGeometry width="150" height="30" relative="1" as="geometry">
            <mxPoint x="40" as="offset" />
          </mxGeometry>
        </mxCell>
        <mxCell id="66FyM0BaRjFSsh8Tppoy-10" value="" style="group" connectable="0" vertex="1" parent="66FyM0BaRjFSsh8Tppoy-6">
          <mxGeometry x="20" y="50" width="35" height="40" as="geometry" />
        </mxCell>
        <mxCell id="66FyM0BaRjFSsh8Tppoy-8" value="" style="html=1;points=[[0,0,0,0,5],[0,1,0,0,-5],[1,0,0,0,5],[1,1,0,0,-5]];perimeter=orthogonalPerimeter;outlineConnect=0;targetShapes=umlLifeline;portConstraint=eastwest;newEdgeStyle={&quot;curved&quot;:0,&quot;rounded&quot;:0};" vertex="1" parent="66FyM0BaRjFSsh8Tppoy-10">
          <mxGeometry width="10" height="20" as="geometry" />
        </mxCell>
        <mxCell id="66FyM0BaRjFSsh8Tppoy-9" value="2. calculate_price()" style="html=1;align=left;spacingLeft=2;endArrow=block;rounded=0;edgeStyle=orthogonalEdgeStyle;curved=0;rounded=0;" edge="1" parent="66FyM0BaRjFSsh8Tppoy-10" target="66FyM0BaRjFSsh8Tppoy-8">
          <mxGeometry relative="1" as="geometry">
            <mxPoint x="5" y="-20" as="sourcePoint" />
            <Array as="points">
              <mxPoint x="35" y="10" />
            </Array>
          </mxGeometry>
        </mxCell>
        <mxCell id="66FyM0BaRjFSsh8Tppoy-24" value="Loop" style="shape=umlFrame;whiteSpace=wrap;html=1;pointerEvents=0;recursiveResize=0;container=1;collapsible=0;width=43;height=20;" vertex="1" parent="1">
          <mxGeometry x="-690" y="210" width="290" height="170" as="geometry" />
        </mxCell>
        <mxCell id="66FyM0BaRjFSsh8Tppoy-25" value="&lt;font style=&quot;font-size: 11px;&quot;&gt;[for each registered Matcher]&lt;/font&gt;" style="text;align=center;html=1;" vertex="1" parent="66FyM0BaRjFSsh8Tppoy-24">
          <mxGeometry width="150" height="30" relative="1" as="geometry">
            <mxPoint x="40" as="offset" />
          </mxGeometry>
        </mxCell>
        <mxCell id="XRDcuM7xadx4l9Delaoq-4" value="" style="html=1;points=[];perimeter=orthogonalPerimeter;outlineConnect=0;targetShapes=umlLifeline;portConstraint=eastwest;newEdgeStyle={&quot;edgeStyle&quot;:&quot;elbowEdgeStyle&quot;,&quot;elbow&quot;:&quot;vertical&quot;,&quot;curved&quot;:0,&quot;rounded&quot;:0};" vertex="1" parent="66FyM0BaRjFSsh8Tppoy-24">
          <mxGeometry x="20" y="45" width="10" height="57" as="geometry" />
        </mxCell>
        <mxCell id="66FyM0BaRjFSsh8Tppoy-30" value="" style="group" connectable="0" vertex="1" parent="66FyM0BaRjFSsh8Tppoy-24">
          <mxGeometry x="20" y="140" width="35" height="40" as="geometry" />
        </mxCell>
        <mxCell id="66FyM0BaRjFSsh8Tppoy-31" value="" style="html=1;points=[[0,0,0,0,5],[0,1,0,0,-5],[1,0,0,0,5],[1,1,0,0,-5]];perimeter=orthogonalPerimeter;outlineConnect=0;targetShapes=umlLifeline;portConstraint=eastwest;newEdgeStyle={&quot;curved&quot;:0,&quot;rounded&quot;:0};" vertex="1" parent="66FyM0BaRjFSsh8Tppoy-30">
          <mxGeometry width="10" height="20" as="geometry" />
        </mxCell>
        <mxCell id="66FyM0BaRjFSsh8Tppoy-32" value="5. process_matcher_response()" style="html=1;align=left;spacingLeft=2;endArrow=block;rounded=0;edgeStyle=orthogonalEdgeStyle;curved=0;rounded=0;" edge="1" parent="66FyM0BaRjFSsh8Tppoy-30" target="66FyM0BaRjFSsh8Tppoy-31">
          <mxGeometry relative="1" as="geometry">
            <mxPoint x="5" y="-20" as="sourcePoint" />
            <Array as="points">
              <mxPoint x="35" y="10" />
            </Array>
          </mxGeometry>
        </mxCell>
        <mxCell id="MWKOEF5_BqW2bRN_1CaQ-1" value="6. Interoperability Simulator&lt;br&gt;API response" style="html=1;verticalAlign=bottom;endArrow=open;dashed=1;endSize=8;edgeStyle=elbowEdgeStyle;elbow=vertical;curved=0;rounded=0;" edge="1" parent="1">
          <mxGeometry x="0.0022" relative="1" as="geometry">
            <mxPoint x="-830.3" y="420" as="targetPoint" />
            <Array as="points" />
            <mxPoint x="-675" y="420" as="sourcePoint" />
            <mxPoint as="offset" />
          </mxGeometry>
        </mxCell>
        <mxCell id="MWKOEF5_BqW2bRN_1CaQ-2" value="" style="group" connectable="0" vertex="1" parent="1">
          <mxGeometry x="-850" width="40" height="440" as="geometry" />
        </mxCell>
        <mxCell id="TWQ3oDzKfyepJbzFTQKO-1" value="" style="shape=umlLifeline;perimeter=lifelinePerimeter;whiteSpace=wrap;html=1;container=1;dropTarget=0;collapsible=0;recursiveResize=0;outlineConnect=0;portConstraint=eastwest;newEdgeStyle={&quot;curved&quot;:0,&quot;rounded&quot;:0};participant=umlActor;movable=1;resizable=1;rotatable=1;deletable=1;editable=1;locked=0;connectable=1;" vertex="1" parent="MWKOEF5_BqW2bRN_1CaQ-2">
          <mxGeometry x="10" y="20" width="20" height="420" as="geometry" />
        </mxCell>
        <mxCell id="TWQ3oDzKfyepJbzFTQKO-2" value="Client" style="text;html=1;strokeColor=none;fillColor=none;align=center;verticalAlign=middle;whiteSpace=wrap;rounded=0;" vertex="1" parent="MWKOEF5_BqW2bRN_1CaQ-2">
          <mxGeometry width="40" height="20" as="geometry" />
        </mxCell>
      </root>
    </mxGraphModel>
  </diagram>
  <diagram id="od6x6foK8ILOYRkDXFIJ" name="docker-compose-visualization">
    <mxGraphModel grid="1" page="1" gridSize="10" guides="1" tooltips="1" connect="1" arrows="1" fold="1" pageScale="1" pageWidth="850" pageHeight="1100" math="0" shadow="0">
      <root>
        <mxCell id="0" />
        <mxCell id="1" parent="0" />
        <mxCell id="wA4t4Lo2y_A06B97Dxcs-29" value="" style="rounded=1;whiteSpace=wrap;html=1;fillColor=none;strokeColor=#3399FF;opacity=60;strokeWidth=4;" vertex="1" parent="1">
          <mxGeometry x="10" y="230" width="710" height="310" as="geometry" />
        </mxCell>
        <mxCell id="vkVn7B4I6aSo9M81-hGJ-1" value="" style="rounded=1;whiteSpace=wrap;html=1;fillColor=none;strokeColor=#FF6666;strokeWidth=4;" vertex="1" parent="1">
          <mxGeometry x="130" y="10" width="270" height="360" as="geometry" />
        </mxCell>
        <mxCell id="wA4t4Lo2y_A06B97Dxcs-1" value="db_dataprovider" style="shape=table;startSize=30;container=1;collapsible=0;childLayout=tableLayout;fontSize=18;fontStyle=1;fillColor=none;" vertex="1" parent="1">
          <mxGeometry x="158" y="60" width="212" height="110" as="geometry" />
        </mxCell>
        <mxCell id="wA4t4Lo2y_A06B97Dxcs-2" value="" style="shape=tableRow;horizontal=0;startSize=0;swimlaneHead=0;swimlaneBody=0;strokeColor=inherit;top=0;left=0;bottom=0;right=0;collapsible=0;dropTarget=0;fillColor=none;points=[[0,0.5],[1,0.5]];portConstraint=eastwest;fontSize=16;" vertex="1" parent="wA4t4Lo2y_A06B97Dxcs-1">
          <mxGeometry y="30" width="212" height="50" as="geometry" />
        </mxCell>
        <mxCell id="wA4t4Lo2y_A06B97Dxcs-3" value="image" style="shape=partialRectangle;html=1;whiteSpace=wrap;connectable=0;strokeColor=default;overflow=hidden;fillColor=none;top=0;left=0;bottom=0;right=0;pointerEvents=1;fontSize=16;" vertex="1" parent="wA4t4Lo2y_A06B97Dxcs-2">
          <mxGeometry width="52" height="50" as="geometry">
            <mxRectangle width="52" height="50" as="alternateBounds" />
          </mxGeometry>
        </mxCell>
        <mxCell id="wA4t4Lo2y_A06B97Dxcs-4" value="postgres:14.8" style="shape=partialRectangle;html=1;whiteSpace=wrap;connectable=0;strokeColor=inherit;overflow=hidden;fillColor=none;top=0;left=0;bottom=0;right=0;pointerEvents=1;fontSize=16;" vertex="1" parent="wA4t4Lo2y_A06B97Dxcs-2">
          <mxGeometry x="52" width="160" height="50" as="geometry">
            <mxRectangle width="160" height="50" as="alternateBounds" />
          </mxGeometry>
        </mxCell>
        <mxCell id="wA4t4Lo2y_A06B97Dxcs-5" value="" style="shape=tableRow;horizontal=0;startSize=0;swimlaneHead=0;swimlaneBody=0;strokeColor=inherit;top=0;left=0;bottom=0;right=0;collapsible=0;dropTarget=0;fillColor=none;points=[[0,0.5],[1,0.5]];portConstraint=eastwest;fontSize=16;" vertex="1" parent="wA4t4Lo2y_A06B97Dxcs-1">
          <mxGeometry y="80" width="212" height="30" as="geometry" />
        </mxCell>
        <mxCell id="wA4t4Lo2y_A06B97Dxcs-6" value="ports" style="shape=partialRectangle;html=1;whiteSpace=wrap;connectable=0;strokeColor=inherit;overflow=hidden;fillColor=none;top=0;left=0;bottom=0;right=0;pointerEvents=1;fontSize=16;" vertex="1" parent="wA4t4Lo2y_A06B97Dxcs-5">
          <mxGeometry width="52" height="30" as="geometry">
            <mxRectangle width="52" height="30" as="alternateBounds" />
          </mxGeometry>
        </mxCell>
        <mxCell id="wA4t4Lo2y_A06B97Dxcs-7" value="5432:5432" style="shape=partialRectangle;html=1;whiteSpace=wrap;connectable=0;strokeColor=inherit;overflow=hidden;fillColor=none;top=0;left=0;bottom=0;right=0;pointerEvents=1;fontSize=16;" vertex="1" parent="wA4t4Lo2y_A06B97Dxcs-5">
          <mxGeometry x="52" width="160" height="30" as="geometry">
            <mxRectangle width="160" height="30" as="alternateBounds" />
          </mxGeometry>
        </mxCell>
        <mxCell id="D_Lw0VekbDm5Uhvxyjc6-2" value="dataprovider" style="shape=table;startSize=30;container=1;collapsible=0;childLayout=tableLayout;strokeColor=default;fontSize=18;fontStyle=1;fontColor=default;fillColor=none;" vertex="1" parent="1">
          <mxGeometry x="156" y="250" width="220" height="110" as="geometry" />
        </mxCell>
        <mxCell id="D_Lw0VekbDm5Uhvxyjc6-3" value="" style="shape=tableRow;horizontal=0;startSize=0;swimlaneHead=0;swimlaneBody=0;strokeColor=inherit;top=0;left=0;bottom=0;right=0;collapsible=0;dropTarget=0;fillColor=none;points=[[0,0.5],[1,0.5]];portConstraint=eastwest;fontSize=16;" vertex="1" parent="D_Lw0VekbDm5Uhvxyjc6-2">
          <mxGeometry y="30" width="220" height="50" as="geometry" />
        </mxCell>
        <mxCell id="D_Lw0VekbDm5Uhvxyjc6-4" value="image" style="shape=partialRectangle;html=1;whiteSpace=wrap;connectable=0;strokeColor=inherit;overflow=hidden;fillColor=none;top=0;left=0;bottom=0;right=0;pointerEvents=1;fontSize=16;" vertex="1" parent="D_Lw0VekbDm5Uhvxyjc6-3">
          <mxGeometry width="53" height="50" as="geometry">
            <mxRectangle width="53" height="50" as="alternateBounds" />
          </mxGeometry>
        </mxCell>
        <mxCell id="D_Lw0VekbDm5Uhvxyjc6-5" value="&lt;div style=&quot;&quot;&gt;&lt;font style=&quot;font-size: 16px;&quot;&gt;aldidoanta/&lt;/font&gt;&lt;/div&gt;&lt;div style=&quot;&quot;&gt;&lt;font style=&quot;font-size: 16px;&quot;&gt;mendix-ids-connector&lt;/font&gt;&lt;/div&gt;" style="shape=partialRectangle;html=1;whiteSpace=wrap;connectable=0;strokeColor=inherit;overflow=hidden;fillColor=none;top=0;left=0;bottom=0;right=0;pointerEvents=1;fontSize=16;" vertex="1" parent="D_Lw0VekbDm5Uhvxyjc6-3">
          <mxGeometry x="53" width="167" height="50" as="geometry">
            <mxRectangle width="167" height="50" as="alternateBounds" />
          </mxGeometry>
        </mxCell>
        <mxCell id="D_Lw0VekbDm5Uhvxyjc6-7" value="" style="shape=tableRow;horizontal=0;startSize=0;swimlaneHead=0;swimlaneBody=0;strokeColor=inherit;top=0;left=0;bottom=0;right=0;collapsible=0;dropTarget=0;fillColor=none;points=[[0,0.5],[1,0.5]];portConstraint=eastwest;fontSize=16;" vertex="1" parent="D_Lw0VekbDm5Uhvxyjc6-2">
          <mxGeometry y="80" width="220" height="30" as="geometry" />
        </mxCell>
        <mxCell id="D_Lw0VekbDm5Uhvxyjc6-8" value="ports" style="shape=partialRectangle;html=1;whiteSpace=wrap;connectable=0;strokeColor=inherit;overflow=hidden;fillColor=none;top=0;left=0;bottom=0;right=0;pointerEvents=1;fontSize=16;" vertex="1" parent="D_Lw0VekbDm5Uhvxyjc6-7">
          <mxGeometry width="53" height="30" as="geometry">
            <mxRectangle width="53" height="30" as="alternateBounds" />
          </mxGeometry>
        </mxCell>
        <mxCell id="D_Lw0VekbDm5Uhvxyjc6-9" value="8081:8080" style="shape=partialRectangle;html=1;whiteSpace=wrap;connectable=0;strokeColor=inherit;overflow=hidden;fillColor=none;top=0;left=0;bottom=0;right=0;pointerEvents=1;fontSize=16;" vertex="1" parent="D_Lw0VekbDm5Uhvxyjc6-7">
          <mxGeometry x="53" width="167" height="30" as="geometry">
            <mxRectangle width="167" height="30" as="alternateBounds" />
          </mxGeometry>
        </mxCell>
        <mxCell id="wA4t4Lo2y_A06B97Dxcs-10" value="" style="endArrow=classic;html=1;rounded=0;exitX=0.5;exitY=0;exitDx=0;exitDy=0;entryX=0.508;entryY=1.033;entryDx=0;entryDy=0;strokeWidth=3;entryPerimeter=0;" edge="1" parent="1" source="D_Lw0VekbDm5Uhvxyjc6-2" target="wA4t4Lo2y_A06B97Dxcs-5">
          <mxGeometry width="50" height="50" relative="1" as="geometry">
            <mxPoint x="170" y="290" as="sourcePoint" />
            <mxPoint x="220" y="240" as="targetPoint" />
          </mxGeometry>
        </mxCell>
        <mxCell id="wA4t4Lo2y_A06B97Dxcs-11" value="&lt;div style=&quot;font-size: 18px;&quot;&gt;&lt;font style=&quot;font-size: 18px;&quot;&gt;depends_on&lt;/font&gt;&lt;/div&gt;" style="edgeLabel;html=1;align=center;verticalAlign=middle;resizable=0;points=[];fontSize=16;labelBackgroundColor=none;" connectable="0" vertex="1" parent="wA4t4Lo2y_A06B97Dxcs-10">
          <mxGeometry x="-0.2" y="3" relative="1" as="geometry">
            <mxPoint x="-53" y="-11" as="offset" />
          </mxGeometry>
        </mxCell>
        <mxCell id="coDDlBqtFa3Xg19e3td9-1" value="" style="rounded=1;whiteSpace=wrap;html=1;fillColor=none;strokeColor=#CCCC00;opacity=60;strokeWidth=4;" vertex="1" parent="1">
          <mxGeometry x="430" y="10" width="270" height="360" as="geometry" />
        </mxCell>
        <mxCell id="wA4t4Lo2y_A06B97Dxcs-12" value="dataconsumer" style="shape=table;startSize=30;container=1;collapsible=0;childLayout=tableLayout;strokeColor=default;fontSize=18;fontStyle=1;fillColor=none;" vertex="1" parent="1">
          <mxGeometry x="455" y="245" width="220" height="110" as="geometry" />
        </mxCell>
        <mxCell id="wA4t4Lo2y_A06B97Dxcs-13" value="" style="shape=tableRow;horizontal=0;startSize=0;swimlaneHead=0;swimlaneBody=0;strokeColor=inherit;top=0;left=0;bottom=0;right=0;collapsible=0;dropTarget=0;fillColor=none;points=[[0,0.5],[1,0.5]];portConstraint=eastwest;fontSize=16;" vertex="1" parent="wA4t4Lo2y_A06B97Dxcs-12">
          <mxGeometry y="30" width="220" height="50" as="geometry" />
        </mxCell>
        <mxCell id="wA4t4Lo2y_A06B97Dxcs-14" value="image" style="shape=partialRectangle;html=1;whiteSpace=wrap;connectable=0;strokeColor=inherit;overflow=hidden;fillColor=none;top=0;left=0;bottom=0;right=0;pointerEvents=1;fontSize=16;" vertex="1" parent="wA4t4Lo2y_A06B97Dxcs-13">
          <mxGeometry width="53" height="50" as="geometry">
            <mxRectangle width="53" height="50" as="alternateBounds" />
          </mxGeometry>
        </mxCell>
        <mxCell id="wA4t4Lo2y_A06B97Dxcs-15" value="&lt;div style=&quot;&quot;&gt;&lt;font style=&quot;font-size: 16px;&quot;&gt;aldidoanta/&lt;/font&gt;&lt;/div&gt;&lt;div style=&quot;&quot;&gt;&lt;font style=&quot;font-size: 16px;&quot;&gt;mendix-ids-connector&lt;/font&gt;&lt;/div&gt;" style="shape=partialRectangle;html=1;whiteSpace=wrap;connectable=0;strokeColor=inherit;overflow=hidden;fillColor=none;top=0;left=0;bottom=0;right=0;pointerEvents=1;fontSize=16;" vertex="1" parent="wA4t4Lo2y_A06B97Dxcs-13">
          <mxGeometry x="53" width="167" height="50" as="geometry">
            <mxRectangle width="167" height="50" as="alternateBounds" />
          </mxGeometry>
        </mxCell>
        <mxCell id="wA4t4Lo2y_A06B97Dxcs-16" value="" style="shape=tableRow;horizontal=0;startSize=0;swimlaneHead=0;swimlaneBody=0;strokeColor=inherit;top=0;left=0;bottom=0;right=0;collapsible=0;dropTarget=0;fillColor=none;points=[[0,0.5],[1,0.5]];portConstraint=eastwest;fontSize=16;" vertex="1" parent="wA4t4Lo2y_A06B97Dxcs-12">
          <mxGeometry y="80" width="220" height="30" as="geometry" />
        </mxCell>
        <mxCell id="wA4t4Lo2y_A06B97Dxcs-17" value="ports" style="shape=partialRectangle;html=1;whiteSpace=wrap;connectable=0;strokeColor=inherit;overflow=hidden;fillColor=none;top=0;left=0;bottom=0;right=0;pointerEvents=1;fontSize=16;" vertex="1" parent="wA4t4Lo2y_A06B97Dxcs-16">
          <mxGeometry width="53" height="30" as="geometry">
            <mxRectangle width="53" height="30" as="alternateBounds" />
          </mxGeometry>
        </mxCell>
        <mxCell id="wA4t4Lo2y_A06B97Dxcs-18" value="8082:8080" style="shape=partialRectangle;html=1;whiteSpace=wrap;connectable=0;strokeColor=inherit;overflow=hidden;fillColor=none;top=0;left=0;bottom=0;right=0;pointerEvents=1;fontSize=16;" vertex="1" parent="wA4t4Lo2y_A06B97Dxcs-16">
          <mxGeometry x="53" width="167" height="30" as="geometry">
            <mxRectangle width="167" height="30" as="alternateBounds" />
          </mxGeometry>
        </mxCell>
        <mxCell id="wA4t4Lo2y_A06B97Dxcs-19" value="db_dataconsumer" style="shape=table;startSize=30;container=1;collapsible=0;childLayout=tableLayout;strokeColor=default;fontSize=18;fontStyle=1;fillColor=none;" vertex="1" parent="1">
          <mxGeometry x="460" y="60" width="210" height="110" as="geometry" />
        </mxCell>
        <mxCell id="wA4t4Lo2y_A06B97Dxcs-20" value="" style="shape=tableRow;horizontal=0;startSize=0;swimlaneHead=0;swimlaneBody=0;strokeColor=inherit;top=0;left=0;bottom=0;right=0;collapsible=0;dropTarget=0;fillColor=none;points=[[0,0.5],[1,0.5]];portConstraint=eastwest;fontSize=16;" vertex="1" parent="wA4t4Lo2y_A06B97Dxcs-19">
          <mxGeometry y="30" width="210" height="50" as="geometry" />
        </mxCell>
        <mxCell id="wA4t4Lo2y_A06B97Dxcs-21" value="image" style="shape=partialRectangle;html=1;whiteSpace=wrap;connectable=0;strokeColor=inherit;overflow=hidden;fillColor=none;top=0;left=0;bottom=0;right=0;pointerEvents=1;fontSize=16;" vertex="1" parent="wA4t4Lo2y_A06B97Dxcs-20">
          <mxGeometry width="51" height="50" as="geometry">
            <mxRectangle width="51" height="50" as="alternateBounds" />
          </mxGeometry>
        </mxCell>
        <mxCell id="wA4t4Lo2y_A06B97Dxcs-22" value="postgres:14.8" style="shape=partialRectangle;html=1;whiteSpace=wrap;connectable=0;strokeColor=inherit;overflow=hidden;fillColor=none;top=0;left=0;bottom=0;right=0;pointerEvents=1;fontSize=16;" vertex="1" parent="wA4t4Lo2y_A06B97Dxcs-20">
          <mxGeometry x="51" width="159" height="50" as="geometry">
            <mxRectangle width="159" height="50" as="alternateBounds" />
          </mxGeometry>
        </mxCell>
        <mxCell id="wA4t4Lo2y_A06B97Dxcs-23" value="" style="shape=tableRow;horizontal=0;startSize=0;swimlaneHead=0;swimlaneBody=0;strokeColor=inherit;top=0;left=0;bottom=0;right=0;collapsible=0;dropTarget=0;fillColor=none;points=[[0,0.5],[1,0.5]];portConstraint=eastwest;fontSize=16;" vertex="1" parent="wA4t4Lo2y_A06B97Dxcs-19">
          <mxGeometry y="80" width="210" height="30" as="geometry" />
        </mxCell>
        <mxCell id="wA4t4Lo2y_A06B97Dxcs-24" value="ports" style="shape=partialRectangle;html=1;whiteSpace=wrap;connectable=0;strokeColor=inherit;overflow=hidden;fillColor=none;top=0;left=0;bottom=0;right=0;pointerEvents=1;fontSize=16;" vertex="1" parent="wA4t4Lo2y_A06B97Dxcs-23">
          <mxGeometry width="51" height="30" as="geometry">
            <mxRectangle width="51" height="30" as="alternateBounds" />
          </mxGeometry>
        </mxCell>
        <mxCell id="wA4t4Lo2y_A06B97Dxcs-25" value="5433:5432" style="shape=partialRectangle;html=1;whiteSpace=wrap;connectable=0;strokeColor=inherit;overflow=hidden;fillColor=none;top=0;left=0;bottom=0;right=0;pointerEvents=1;fontSize=16;" vertex="1" parent="wA4t4Lo2y_A06B97Dxcs-23">
          <mxGeometry x="51" width="159" height="30" as="geometry">
            <mxRectangle width="159" height="30" as="alternateBounds" />
          </mxGeometry>
        </mxCell>
        <mxCell id="wA4t4Lo2y_A06B97Dxcs-26" value="" style="endArrow=classic;html=1;rounded=0;exitX=0.5;exitY=0;exitDx=0;exitDy=0;entryX=0.504;entryY=1.033;entryDx=0;entryDy=0;strokeWidth=3;entryPerimeter=0;" edge="1" parent="1" source="wA4t4Lo2y_A06B97Dxcs-12" target="wA4t4Lo2y_A06B97Dxcs-23">
          <mxGeometry width="50" height="50" relative="1" as="geometry">
            <mxPoint x="630" y="75" as="sourcePoint" />
            <mxPoint x="680" y="25" as="targetPoint" />
          </mxGeometry>
        </mxCell>
        <mxCell id="coDDlBqtFa3Xg19e3td9-10" value="&lt;div style=&quot;font-size: 18px;&quot;&gt;&lt;font style=&quot;font-size: 18px;&quot;&gt;depends_on&lt;/font&gt;&lt;/div&gt;" style="edgeLabel;html=1;align=center;verticalAlign=middle;resizable=0;points=[];fontSize=16;labelBackgroundColor=none;" connectable="0" vertex="1" parent="1">
          <mxGeometry x="621" y="208" as="geometry">
            <mxPoint x="-2" y="-1" as="offset" />
          </mxGeometry>
        </mxCell>
        <mxCell id="coDDlBqtFa3Xg19e3td9-11" value="&lt;font style=&quot;font-size: 16px;&quot;&gt;network_dp&lt;/font&gt;" style="text;html=1;strokeColor=none;fillColor=none;align=center;verticalAlign=middle;whiteSpace=wrap;rounded=0;fontColor=#FF6666;fontStyle=1" vertex="1" parent="1">
          <mxGeometry x="158" y="14" width="70" height="30" as="geometry" />
        </mxCell>
        <mxCell id="coDDlBqtFa3Xg19e3td9-12" value="&lt;font style=&quot;font-size: 16px;&quot;&gt;network_dc&lt;/font&gt;" style="text;html=1;strokeColor=none;fillColor=none;align=center;verticalAlign=middle;whiteSpace=wrap;rounded=0;fontColor=#CCCC00;fontStyle=1" vertex="1" parent="1">
          <mxGeometry x="457" y="14" width="70" height="30" as="geometry" />
        </mxCell>
        <mxCell id="coDDlBqtFa3Xg19e3td9-13" value="" style="rounded=1;whiteSpace=wrap;html=1;fillColor=none;strokeColor=#00CC00;opacity=60;strokeWidth=4;" vertex="1" parent="1">
          <mxGeometry x="120" y="390" width="560" height="530" as="geometry" />
        </mxCell>
        <mxCell id="coDDlBqtFa3Xg19e3td9-14" value="vocabularyhub" style="shape=table;startSize=30;container=1;collapsible=0;childLayout=tableLayout;strokeColor=default;fontSize=18;fontStyle=1;fontColor=default;fillColor=none;" vertex="1" parent="1">
          <mxGeometry x="290" y="405" width="250" height="110" as="geometry" />
        </mxCell>
        <mxCell id="coDDlBqtFa3Xg19e3td9-15" value="" style="shape=tableRow;horizontal=0;startSize=0;swimlaneHead=0;swimlaneBody=0;strokeColor=inherit;top=0;left=0;bottom=0;right=0;collapsible=0;dropTarget=0;fillColor=none;points=[[0,0.5],[1,0.5]];portConstraint=eastwest;fontSize=16;" vertex="1" parent="coDDlBqtFa3Xg19e3td9-14">
          <mxGeometry y="30" width="250" height="50" as="geometry" />
        </mxCell>
        <mxCell id="coDDlBqtFa3Xg19e3td9-16" value="image" style="shape=partialRectangle;html=1;whiteSpace=wrap;connectable=0;strokeColor=inherit;overflow=hidden;fillColor=none;top=0;left=0;bottom=0;right=0;pointerEvents=1;fontSize=16;" vertex="1" parent="coDDlBqtFa3Xg19e3td9-15">
          <mxGeometry width="60" height="50" as="geometry">
            <mxRectangle width="60" height="50" as="alternateBounds" />
          </mxGeometry>
        </mxCell>
        <mxCell id="coDDlBqtFa3Xg19e3td9-17" value="&lt;div style=&quot;&quot;&gt;&lt;font style=&quot;font-size: 16px;&quot;&gt;aldidoanta/&lt;/font&gt;&lt;/div&gt;&lt;div style=&quot;&quot;&gt;&lt;font style=&quot;font-size: 16px;&quot;&gt;vocabulary-hub&lt;/font&gt;&lt;/div&gt;" style="shape=partialRectangle;html=1;whiteSpace=wrap;connectable=0;strokeColor=inherit;overflow=hidden;fillColor=none;top=0;left=0;bottom=0;right=0;pointerEvents=1;fontSize=16;" vertex="1" parent="coDDlBqtFa3Xg19e3td9-15">
          <mxGeometry x="60" width="190" height="50" as="geometry">
            <mxRectangle width="190" height="50" as="alternateBounds" />
          </mxGeometry>
        </mxCell>
        <mxCell id="coDDlBqtFa3Xg19e3td9-18" value="" style="shape=tableRow;horizontal=0;startSize=0;swimlaneHead=0;swimlaneBody=0;strokeColor=inherit;top=0;left=0;bottom=0;right=0;collapsible=0;dropTarget=0;fillColor=none;points=[[0,0.5],[1,0.5]];portConstraint=eastwest;fontSize=16;" vertex="1" parent="coDDlBqtFa3Xg19e3td9-14">
          <mxGeometry y="80" width="250" height="30" as="geometry" />
        </mxCell>
        <mxCell id="coDDlBqtFa3Xg19e3td9-19" value="ports" style="shape=partialRectangle;html=1;whiteSpace=wrap;connectable=0;strokeColor=inherit;overflow=hidden;fillColor=none;top=0;left=0;bottom=0;right=0;pointerEvents=1;fontSize=16;" vertex="1" parent="coDDlBqtFa3Xg19e3td9-18">
          <mxGeometry width="60" height="30" as="geometry">
            <mxRectangle width="60" height="30" as="alternateBounds" />
          </mxGeometry>
        </mxCell>
        <mxCell id="coDDlBqtFa3Xg19e3td9-20" value="8000:8000" style="shape=partialRectangle;html=1;whiteSpace=wrap;connectable=0;strokeColor=inherit;overflow=hidden;fillColor=none;top=0;left=0;bottom=0;right=0;pointerEvents=1;fontSize=16;" vertex="1" parent="coDDlBqtFa3Xg19e3td9-18">
          <mxGeometry x="60" width="190" height="30" as="geometry">
            <mxRectangle width="190" height="30" as="alternateBounds" />
          </mxGeometry>
        </mxCell>
        <mxCell id="coDDlBqtFa3Xg19e3td9-21" value="&lt;font style=&quot;font-size: 16px;&quot;&gt;network_vh&lt;/font&gt;" style="text;html=1;strokeColor=none;fillColor=none;align=center;verticalAlign=middle;whiteSpace=wrap;rounded=0;fontColor=#00CC00;fontStyle=1" vertex="1" parent="1">
          <mxGeometry x="170" y="400" width="70" height="30" as="geometry" />
        </mxCell>
        <mxCell id="coDDlBqtFa3Xg19e3td9-22" value="&lt;font color=&quot;#3399ff&quot; style=&quot;font-size: 16px;&quot;&gt;network_ids&lt;/font&gt;" style="text;html=1;strokeColor=none;fillColor=none;align=center;verticalAlign=middle;whiteSpace=wrap;rounded=0;fontColor=#FF6666;fontStyle=1" vertex="1" parent="1">
          <mxGeometry x="43" y="234" width="70" height="30" as="geometry" />
        </mxCell>
        <mxCell id="coDDlBqtFa3Xg19e3td9-24" value="matchercoma" style="shape=table;startSize=30;container=1;collapsible=0;childLayout=tableLayout;strokeColor=default;fontSize=18;fontStyle=1;fontColor=default;fillColor=none;" vertex="1" parent="1">
          <mxGeometry x="140" y="610" width="220" height="110" as="geometry" />
        </mxCell>
        <mxCell id="coDDlBqtFa3Xg19e3td9-25" value="" style="shape=tableRow;horizontal=0;startSize=0;swimlaneHead=0;swimlaneBody=0;strokeColor=inherit;top=0;left=0;bottom=0;right=0;collapsible=0;dropTarget=0;fillColor=none;points=[[0,0.5],[1,0.5]];portConstraint=eastwest;fontSize=16;" vertex="1" parent="coDDlBqtFa3Xg19e3td9-24">
          <mxGeometry y="30" width="220" height="50" as="geometry" />
        </mxCell>
        <mxCell id="coDDlBqtFa3Xg19e3td9-26" value="image" style="shape=partialRectangle;html=1;whiteSpace=wrap;connectable=0;strokeColor=inherit;overflow=hidden;fillColor=none;top=0;left=0;bottom=0;right=0;pointerEvents=1;fontSize=16;" vertex="1" parent="coDDlBqtFa3Xg19e3td9-25">
          <mxGeometry width="53" height="50" as="geometry">
            <mxRectangle width="53" height="50" as="alternateBounds" />
          </mxGeometry>
        </mxCell>
        <mxCell id="coDDlBqtFa3Xg19e3td9-27" value="&lt;div style=&quot;&quot;&gt;&lt;font style=&quot;font-size: 16px;&quot;&gt;aldidoanta/&lt;/font&gt;&lt;/div&gt;&lt;div style=&quot;&quot;&gt;&lt;font style=&quot;font-size: 16px;&quot;&gt;matcher-coma&lt;/font&gt;&lt;/div&gt;" style="shape=partialRectangle;html=1;whiteSpace=wrap;connectable=0;strokeColor=inherit;overflow=hidden;fillColor=none;top=0;left=0;bottom=0;right=0;pointerEvents=1;fontSize=16;" vertex="1" parent="coDDlBqtFa3Xg19e3td9-25">
          <mxGeometry x="53" width="167" height="50" as="geometry">
            <mxRectangle width="167" height="50" as="alternateBounds" />
          </mxGeometry>
        </mxCell>
        <mxCell id="coDDlBqtFa3Xg19e3td9-28" value="" style="shape=tableRow;horizontal=0;startSize=0;swimlaneHead=0;swimlaneBody=0;strokeColor=inherit;top=0;left=0;bottom=0;right=0;collapsible=0;dropTarget=0;fillColor=none;points=[[0,0.5],[1,0.5]];portConstraint=eastwest;fontSize=16;" vertex="1" parent="coDDlBqtFa3Xg19e3td9-24">
          <mxGeometry y="80" width="220" height="30" as="geometry" />
        </mxCell>
        <mxCell id="coDDlBqtFa3Xg19e3td9-29" value="ports" style="shape=partialRectangle;html=1;whiteSpace=wrap;connectable=0;strokeColor=inherit;overflow=hidden;fillColor=none;top=0;left=0;bottom=0;right=0;pointerEvents=1;fontSize=16;" vertex="1" parent="coDDlBqtFa3Xg19e3td9-28">
          <mxGeometry width="53" height="30" as="geometry">
            <mxRectangle width="53" height="30" as="alternateBounds" />
          </mxGeometry>
        </mxCell>
        <mxCell id="coDDlBqtFa3Xg19e3td9-30" value="8001:8001" style="shape=partialRectangle;html=1;whiteSpace=wrap;connectable=0;strokeColor=inherit;overflow=hidden;fillColor=none;top=0;left=0;bottom=0;right=0;pointerEvents=1;fontSize=16;" vertex="1" parent="coDDlBqtFa3Xg19e3td9-28">
          <mxGeometry x="53" width="167" height="30" as="geometry">
            <mxRectangle width="167" height="30" as="alternateBounds" />
          </mxGeometry>
        </mxCell>
        <mxCell id="coDDlBqtFa3Xg19e3td9-31" value="matchercupid" style="shape=table;startSize=30;container=1;collapsible=0;childLayout=tableLayout;strokeColor=default;fontSize=18;fontStyle=1;fontColor=default;fillColor=none;" vertex="1" parent="1">
          <mxGeometry x="440" y="610" width="220" height="110" as="geometry" />
        </mxCell>
        <mxCell id="coDDlBqtFa3Xg19e3td9-32" value="" style="shape=tableRow;horizontal=0;startSize=0;swimlaneHead=0;swimlaneBody=0;strokeColor=inherit;top=0;left=0;bottom=0;right=0;collapsible=0;dropTarget=0;fillColor=none;points=[[0,0.5],[1,0.5]];portConstraint=eastwest;fontSize=16;" vertex="1" parent="coDDlBqtFa3Xg19e3td9-31">
          <mxGeometry y="30" width="220" height="50" as="geometry" />
        </mxCell>
        <mxCell id="coDDlBqtFa3Xg19e3td9-33" value="image" style="shape=partialRectangle;html=1;whiteSpace=wrap;connectable=0;strokeColor=inherit;overflow=hidden;fillColor=none;top=0;left=0;bottom=0;right=0;pointerEvents=1;fontSize=16;" vertex="1" parent="coDDlBqtFa3Xg19e3td9-32">
          <mxGeometry width="53" height="50" as="geometry">
            <mxRectangle width="53" height="50" as="alternateBounds" />
          </mxGeometry>
        </mxCell>
        <mxCell id="coDDlBqtFa3Xg19e3td9-34" value="&lt;div style=&quot;&quot;&gt;&lt;font style=&quot;font-size: 16px;&quot;&gt;aldidoanta/&lt;/font&gt;&lt;/div&gt;&lt;div style=&quot;&quot;&gt;&lt;font style=&quot;font-size: 16px;&quot;&gt;matcher-cupid&lt;/font&gt;&lt;/div&gt;" style="shape=partialRectangle;html=1;whiteSpace=wrap;connectable=0;strokeColor=inherit;overflow=hidden;fillColor=none;top=0;left=0;bottom=0;right=0;pointerEvents=1;fontSize=16;" vertex="1" parent="coDDlBqtFa3Xg19e3td9-32">
          <mxGeometry x="53" width="167" height="50" as="geometry">
            <mxRectangle width="167" height="50" as="alternateBounds" />
          </mxGeometry>
        </mxCell>
        <mxCell id="coDDlBqtFa3Xg19e3td9-35" value="" style="shape=tableRow;horizontal=0;startSize=0;swimlaneHead=0;swimlaneBody=0;strokeColor=inherit;top=0;left=0;bottom=0;right=0;collapsible=0;dropTarget=0;fillColor=none;points=[[0,0.5],[1,0.5]];portConstraint=eastwest;fontSize=16;" vertex="1" parent="coDDlBqtFa3Xg19e3td9-31">
          <mxGeometry y="80" width="220" height="30" as="geometry" />
        </mxCell>
        <mxCell id="coDDlBqtFa3Xg19e3td9-36" value="ports" style="shape=partialRectangle;html=1;whiteSpace=wrap;connectable=0;strokeColor=inherit;overflow=hidden;fillColor=none;top=0;left=0;bottom=0;right=0;pointerEvents=1;fontSize=16;" vertex="1" parent="coDDlBqtFa3Xg19e3td9-35">
          <mxGeometry width="53" height="30" as="geometry">
            <mxRectangle width="53" height="30" as="alternateBounds" />
          </mxGeometry>
        </mxCell>
        <mxCell id="coDDlBqtFa3Xg19e3td9-37" value="8002:8002" style="shape=partialRectangle;html=1;whiteSpace=wrap;connectable=0;strokeColor=inherit;overflow=hidden;fillColor=none;top=0;left=0;bottom=0;right=0;pointerEvents=1;fontSize=16;" vertex="1" parent="coDDlBqtFa3Xg19e3td9-35">
          <mxGeometry x="53" width="167" height="30" as="geometry">
            <mxRectangle width="167" height="30" as="alternateBounds" />
          </mxGeometry>
        </mxCell>
        <mxCell id="coDDlBqtFa3Xg19e3td9-39" value="" style="endArrow=classic;html=1;rounded=0;exitX=0.52;exitY=1;exitDx=0;exitDy=0;entryX=0.5;entryY=0;entryDx=0;entryDy=0;strokeWidth=3;exitPerimeter=0;" edge="1" parent="1" source="coDDlBqtFa3Xg19e3td9-18" target="coDDlBqtFa3Xg19e3td9-24">
          <mxGeometry width="50" height="50" relative="1" as="geometry">
            <mxPoint x="295" y="260" as="sourcePoint" />
            <mxPoint x="295" y="181" as="targetPoint" />
          </mxGeometry>
        </mxCell>
        <mxCell id="coDDlBqtFa3Xg19e3td9-40" value="&lt;div style=&quot;font-size: 18px;&quot;&gt;&lt;font style=&quot;font-size: 18px;&quot;&gt;depends_on&lt;/font&gt;&lt;/div&gt;" style="edgeLabel;html=1;align=center;verticalAlign=middle;resizable=0;points=[];fontSize=16;labelBackgroundColor=none;" connectable="0" vertex="1" parent="coDDlBqtFa3Xg19e3td9-39">
          <mxGeometry x="-0.2" y="3" relative="1" as="geometry">
            <mxPoint x="-123" y="24" as="offset" />
          </mxGeometry>
        </mxCell>
        <mxCell id="coDDlBqtFa3Xg19e3td9-41" value="" style="endArrow=classic;html=1;rounded=0;exitX=0.512;exitY=1.013;exitDx=0;exitDy=0;entryX=0.75;entryY=0;entryDx=0;entryDy=0;strokeWidth=3;exitPerimeter=0;" edge="1" parent="1" source="coDDlBqtFa3Xg19e3td9-18" target="coDDlBqtFa3Xg19e3td9-31">
          <mxGeometry width="50" height="50" relative="1" as="geometry">
            <mxPoint x="454" y="549" as="sourcePoint" />
            <mxPoint x="275" y="640" as="targetPoint" />
          </mxGeometry>
        </mxCell>
        <mxCell id="coDDlBqtFa3Xg19e3td9-42" value="&lt;div style=&quot;font-size: 18px;&quot;&gt;&lt;font style=&quot;font-size: 18px;&quot;&gt;depends_on&lt;/font&gt;&lt;/div&gt;" style="edgeLabel;html=1;align=center;verticalAlign=middle;resizable=0;points=[];fontSize=16;labelBackgroundColor=none;" connectable="0" vertex="1" parent="coDDlBqtFa3Xg19e3td9-41">
          <mxGeometry x="-0.2" y="3" relative="1" as="geometry">
            <mxPoint x="116" y="19" as="offset" />
          </mxGeometry>
        </mxCell>
        <mxCell id="55EMMbaZezV09m_uED2f-1" value="matchersimilarityflooding" style="shape=table;startSize=30;container=1;collapsible=0;childLayout=tableLayout;strokeColor=default;fontSize=18;fontStyle=1;fontColor=default;fillColor=none;" vertex="1" parent="1">
          <mxGeometry x="155" y="790" width="250" height="110" as="geometry" />
        </mxCell>
        <mxCell id="55EMMbaZezV09m_uED2f-2" value="" style="shape=tableRow;horizontal=0;startSize=0;swimlaneHead=0;swimlaneBody=0;strokeColor=inherit;top=0;left=0;bottom=0;right=0;collapsible=0;dropTarget=0;fillColor=none;points=[[0,0.5],[1,0.5]];portConstraint=eastwest;fontSize=16;" vertex="1" parent="55EMMbaZezV09m_uED2f-1">
          <mxGeometry y="30" width="250" height="50" as="geometry" />
        </mxCell>
        <mxCell id="55EMMbaZezV09m_uED2f-3" value="image" style="shape=partialRectangle;html=1;whiteSpace=wrap;connectable=0;strokeColor=inherit;overflow=hidden;fillColor=none;top=0;left=0;bottom=0;right=0;pointerEvents=1;fontSize=16;" vertex="1" parent="55EMMbaZezV09m_uED2f-2">
          <mxGeometry width="60" height="50" as="geometry">
            <mxRectangle width="60" height="50" as="alternateBounds" />
          </mxGeometry>
        </mxCell>
        <mxCell id="55EMMbaZezV09m_uED2f-4" value="&lt;div style=&quot;&quot;&gt;&lt;font style=&quot;font-size: 16px;&quot;&gt;aldidoanta/&lt;/font&gt;&lt;/div&gt;&lt;div style=&quot;&quot;&gt;&lt;font style=&quot;font-size: 16px;&quot;&gt;matcher-similarityflooding&lt;/font&gt;&lt;/div&gt;" style="shape=partialRectangle;html=1;whiteSpace=wrap;connectable=0;strokeColor=inherit;overflow=hidden;fillColor=none;top=0;left=0;bottom=0;right=0;pointerEvents=1;fontSize=16;" vertex="1" parent="55EMMbaZezV09m_uED2f-2">
          <mxGeometry x="60" width="190" height="50" as="geometry">
            <mxRectangle width="190" height="50" as="alternateBounds" />
          </mxGeometry>
        </mxCell>
        <mxCell id="55EMMbaZezV09m_uED2f-5" value="" style="shape=tableRow;horizontal=0;startSize=0;swimlaneHead=0;swimlaneBody=0;strokeColor=inherit;top=0;left=0;bottom=0;right=0;collapsible=0;dropTarget=0;fillColor=none;points=[[0,0.5],[1,0.5]];portConstraint=eastwest;fontSize=16;" vertex="1" parent="55EMMbaZezV09m_uED2f-1">
          <mxGeometry y="80" width="250" height="30" as="geometry" />
        </mxCell>
        <mxCell id="55EMMbaZezV09m_uED2f-6" value="ports" style="shape=partialRectangle;html=1;whiteSpace=wrap;connectable=0;strokeColor=inherit;overflow=hidden;fillColor=none;top=0;left=0;bottom=0;right=0;pointerEvents=1;fontSize=16;" vertex="1" parent="55EMMbaZezV09m_uED2f-5">
          <mxGeometry width="60" height="30" as="geometry">
            <mxRectangle width="60" height="30" as="alternateBounds" />
          </mxGeometry>
        </mxCell>
        <mxCell id="55EMMbaZezV09m_uED2f-7" value="8003:8003" style="shape=partialRectangle;html=1;whiteSpace=wrap;connectable=0;strokeColor=inherit;overflow=hidden;fillColor=none;top=0;left=0;bottom=0;right=0;pointerEvents=1;fontSize=16;" vertex="1" parent="55EMMbaZezV09m_uED2f-5">
          <mxGeometry x="60" width="190" height="30" as="geometry">
            <mxRectangle width="190" height="30" as="alternateBounds" />
          </mxGeometry>
        </mxCell>
        <mxCell id="55EMMbaZezV09m_uED2f-8" value="matcherdummy" style="shape=table;startSize=30;container=1;collapsible=0;childLayout=tableLayout;strokeColor=default;fontSize=18;fontStyle=1;fontColor=default;fillColor=none;" vertex="1" parent="1">
          <mxGeometry x="425" y="790" width="220" height="110" as="geometry" />
        </mxCell>
        <mxCell id="55EMMbaZezV09m_uED2f-9" value="" style="shape=tableRow;horizontal=0;startSize=0;swimlaneHead=0;swimlaneBody=0;strokeColor=inherit;top=0;left=0;bottom=0;right=0;collapsible=0;dropTarget=0;fillColor=none;points=[[0,0.5],[1,0.5]];portConstraint=eastwest;fontSize=16;" vertex="1" parent="55EMMbaZezV09m_uED2f-8">
          <mxGeometry y="30" width="220" height="50" as="geometry" />
        </mxCell>
        <mxCell id="55EMMbaZezV09m_uED2f-10" value="image" style="shape=partialRectangle;html=1;whiteSpace=wrap;connectable=0;strokeColor=inherit;overflow=hidden;fillColor=none;top=0;left=0;bottom=0;right=0;pointerEvents=1;fontSize=16;" vertex="1" parent="55EMMbaZezV09m_uED2f-9">
          <mxGeometry width="53" height="50" as="geometry">
            <mxRectangle width="53" height="50" as="alternateBounds" />
          </mxGeometry>
        </mxCell>
        <mxCell id="55EMMbaZezV09m_uED2f-11" value="&lt;div style=&quot;&quot;&gt;&lt;font style=&quot;font-size: 16px;&quot;&gt;aldidoanta/&lt;/font&gt;&lt;/div&gt;&lt;div style=&quot;&quot;&gt;&lt;font style=&quot;font-size: 16px;&quot;&gt;matcher-dummy&lt;/font&gt;&lt;/div&gt;" style="shape=partialRectangle;html=1;whiteSpace=wrap;connectable=0;strokeColor=inherit;overflow=hidden;fillColor=none;top=0;left=0;bottom=0;right=0;pointerEvents=1;fontSize=16;" vertex="1" parent="55EMMbaZezV09m_uED2f-9">
          <mxGeometry x="53" width="167" height="50" as="geometry">
            <mxRectangle width="167" height="50" as="alternateBounds" />
          </mxGeometry>
        </mxCell>
        <mxCell id="55EMMbaZezV09m_uED2f-12" value="" style="shape=tableRow;horizontal=0;startSize=0;swimlaneHead=0;swimlaneBody=0;strokeColor=inherit;top=0;left=0;bottom=0;right=0;collapsible=0;dropTarget=0;fillColor=none;points=[[0,0.5],[1,0.5]];portConstraint=eastwest;fontSize=16;" vertex="1" parent="55EMMbaZezV09m_uED2f-8">
          <mxGeometry y="80" width="220" height="30" as="geometry" />
        </mxCell>
        <mxCell id="55EMMbaZezV09m_uED2f-13" value="ports" style="shape=partialRectangle;html=1;whiteSpace=wrap;connectable=0;strokeColor=inherit;overflow=hidden;fillColor=none;top=0;left=0;bottom=0;right=0;pointerEvents=1;fontSize=16;" vertex="1" parent="55EMMbaZezV09m_uED2f-12">
          <mxGeometry width="53" height="30" as="geometry">
            <mxRectangle width="53" height="30" as="alternateBounds" />
          </mxGeometry>
        </mxCell>
        <mxCell id="55EMMbaZezV09m_uED2f-14" value="8004:8004" style="shape=partialRectangle;html=1;whiteSpace=wrap;connectable=0;strokeColor=inherit;overflow=hidden;fillColor=none;top=0;left=0;bottom=0;right=0;pointerEvents=1;fontSize=16;" vertex="1" parent="55EMMbaZezV09m_uED2f-12">
          <mxGeometry x="53" width="167" height="30" as="geometry">
            <mxRectangle width="167" height="30" as="alternateBounds" />
          </mxGeometry>
        </mxCell>
        <mxCell id="55EMMbaZezV09m_uED2f-15" value="" style="endArrow=classic;html=1;rounded=0;exitX=0.501;exitY=1.045;exitDx=0;exitDy=0;entryX=0.883;entryY=0.004;entryDx=0;entryDy=0;strokeWidth=3;exitPerimeter=0;entryPerimeter=0;" edge="1" parent="1" source="coDDlBqtFa3Xg19e3td9-18" target="55EMMbaZezV09m_uED2f-1">
          <mxGeometry width="50" height="50" relative="1" as="geometry">
            <mxPoint x="430" y="525" as="sourcePoint" />
            <mxPoint x="260" y="620" as="targetPoint" />
          </mxGeometry>
        </mxCell>
        <mxCell id="55EMMbaZezV09m_uED2f-16" value="&lt;div style=&quot;font-size: 18px;&quot;&gt;&lt;font style=&quot;font-size: 18px;&quot;&gt;depends_on&lt;/font&gt;&lt;/div&gt;" style="edgeLabel;html=1;align=center;verticalAlign=middle;resizable=0;points=[];fontSize=16;labelBackgroundColor=none;" connectable="0" vertex="1" parent="55EMMbaZezV09m_uED2f-15">
          <mxGeometry x="-0.2" y="3" relative="1" as="geometry">
            <mxPoint x="-86" y="133" as="offset" />
          </mxGeometry>
        </mxCell>
        <mxCell id="55EMMbaZezV09m_uED2f-17" value="" style="endArrow=classic;html=1;rounded=0;exitX=0.512;exitY=1.045;exitDx=0;exitDy=0;entryX=0.095;entryY=-0.019;entryDx=0;entryDy=0;strokeWidth=3;exitPerimeter=0;entryPerimeter=0;" edge="1" parent="1" source="coDDlBqtFa3Xg19e3td9-18" target="55EMMbaZezV09m_uED2f-8">
          <mxGeometry width="50" height="50" relative="1" as="geometry">
            <mxPoint x="425" y="526" as="sourcePoint" />
            <mxPoint x="371" y="750" as="targetPoint" />
          </mxGeometry>
        </mxCell>
        <mxCell id="55EMMbaZezV09m_uED2f-18" value="&lt;div style=&quot;font-size: 18px;&quot;&gt;&lt;font style=&quot;font-size: 18px;&quot;&gt;depends_on&lt;/font&gt;&lt;/div&gt;" style="edgeLabel;html=1;align=center;verticalAlign=middle;resizable=0;points=[];fontSize=16;labelBackgroundColor=none;" connectable="0" vertex="1" parent="55EMMbaZezV09m_uED2f-17">
          <mxGeometry x="-0.2" y="3" relative="1" as="geometry">
            <mxPoint x="66" y="135" as="offset" />
          </mxGeometry>
        </mxCell>
        <mxCell id="mNYWzsi4LKCZCdLGDYiB-4" value="&lt;font size=&quot;1&quot;&gt;&lt;b style=&quot;font-size: 16px;&quot;&gt;volume_db_dp&lt;/b&gt;&lt;/font&gt;" style="rounded=1;whiteSpace=wrap;html=1;fillColor=none;" vertex="1" parent="1">
          <mxGeometry x="-67" y="55" width="130" height="40" as="geometry" />
        </mxCell>
        <mxCell id="mNYWzsi4LKCZCdLGDYiB-5" value="" style="endArrow=classic;html=1;rounded=0;exitX=0.002;exitY=0.133;exitDx=0;exitDy=0;strokeWidth=3;exitPerimeter=0;entryX=1;entryY=0.5;entryDx=0;entryDy=0;" edge="1" parent="1" source="wA4t4Lo2y_A06B97Dxcs-1" target="mNYWzsi4LKCZCdLGDYiB-4">
          <mxGeometry width="50" height="50" relative="1" as="geometry">
            <mxPoint x="40" y="219" as="sourcePoint" />
            <mxPoint x="70" y="40" as="targetPoint" />
          </mxGeometry>
        </mxCell>
        <mxCell id="mNYWzsi4LKCZCdLGDYiB-6" value="uses" style="edgeLabel;html=1;align=center;verticalAlign=middle;resizable=0;points=[];fontSize=16;labelBackgroundColor=none;" connectable="0" vertex="1" parent="mNYWzsi4LKCZCdLGDYiB-5">
          <mxGeometry x="-0.2" y="3" relative="1" as="geometry">
            <mxPoint x="-15" y="-17" as="offset" />
          </mxGeometry>
        </mxCell>
        <mxCell id="mNYWzsi4LKCZCdLGDYiB-7" value="&lt;font size=&quot;1&quot;&gt;&lt;b style=&quot;font-size: 16px;&quot;&gt;volume_db_dc&lt;/b&gt;&lt;/font&gt;" style="rounded=1;whiteSpace=wrap;html=1;fillColor=none;" vertex="1" parent="1">
          <mxGeometry x="767" y="56" width="130" height="40" as="geometry" />
        </mxCell>
        <mxCell id="issxZYcfCscOsHWpeDFq-1" value="" style="endArrow=classic;html=1;rounded=0;exitX=1;exitY=0.145;exitDx=0;exitDy=0;strokeWidth=3;exitPerimeter=0;entryX=0;entryY=0.5;entryDx=0;entryDy=0;" edge="1" parent="1" source="wA4t4Lo2y_A06B97Dxcs-19" target="mNYWzsi4LKCZCdLGDYiB-7">
          <mxGeometry width="50" height="50" relative="1" as="geometry">
            <mxPoint x="879" y="160" as="sourcePoint" />
            <mxPoint x="780" y="160" as="targetPoint" />
          </mxGeometry>
        </mxCell>
        <mxCell id="issxZYcfCscOsHWpeDFq-2" value="uses" style="edgeLabel;html=1;align=center;verticalAlign=middle;resizable=0;points=[];fontSize=16;labelBackgroundColor=none;" connectable="0" vertex="1" parent="issxZYcfCscOsHWpeDFq-1">
          <mxGeometry x="-0.2" y="3" relative="1" as="geometry">
            <mxPoint x="16" y="-9" as="offset" />
          </mxGeometry>
        </mxCell>
      </root>
    </mxGraphModel>
  </diagram>
</mxfile>
